<svg width="727" height="132" viewBox="0 0 727 132" xmlns="http://www.w3.org/2000/svg"><g fill="none"><path d="M170.61 85.811c1.267 3.257 3.393 5.541 6.378 6.853 2.986 1.311 6.333 1.967 10.042 1.967 3.8 0 7.418-.475 10.855-1.425 3.438-.95 6.197-2.058 8.277-3.324 1.448.905 2.669 2.171 3.664 3.8.995 1.628 1.493 3.347 1.493 5.156 0 2.261-.634 4.206-1.9 5.835-1.266 1.628-3.053 2.985-5.36 4.07-2.307 1.086-5.043 1.877-8.21 2.375-3.165.498-6.648.746-10.448.746-5.337 0-10.29-.746-14.858-2.239-4.568-1.492-8.526-3.731-11.873-6.716-3.347-2.986-5.97-6.74-7.87-11.263-1.9-4.523-2.85-9.815-2.85-15.876 0-5.97.972-11.104 2.917-15.401 1.945-4.297 4.524-7.825 7.735-10.584a31.337 31.337 0 0 1 10.923-6.107 40.462 40.462 0 0 1 12.484-1.967c4.794 0 9.16.724 13.094 2.171 3.935 1.447 7.328 3.438 10.177 5.97 2.85 2.533 5.044 5.564 6.582 9.092 1.537 3.528 2.306 7.373 2.306 11.534 0 3.076-.86 5.428-2.578 7.056-1.719 1.628-4.116 2.669-7.192 3.12l-33.787 5.157Zm11.535-27.274c-3.438 0-6.31 1.04-8.617 3.12-2.307 2.081-3.686 5.021-4.138 8.82l23.067-3.799c-.09-.904-.361-1.831-.814-2.781-.452-.95-1.085-1.832-1.9-2.646-.814-.814-1.854-1.47-3.12-1.968-1.267-.497-2.76-.746-4.478-.746Zm75.174-16.827c3.89 0 7.237.498 10.041 1.494V21.22c.995-.271 2.42-.543 4.274-.814 1.856-.27 3.868-.406 6.039-.406 4.523 0 7.78.746 9.77 2.239 1.99 1.493 2.985 4.365 2.985 8.616v64.319c0 4.252-1.99 7.644-5.97 10.177-2.624 1.719-5.994 3.234-10.11 4.546-4.116 1.311-8.888 1.967-14.315 1.967-11.85 0-21.078-2.917-27.682-8.752-6.604-5.835-9.905-14.542-9.905-26.12 0-5.971.904-11.173 2.713-15.606 1.81-4.432 4.275-8.096 7.396-10.99 3.12-2.896 6.807-5.067 11.059-6.514 4.251-1.447 8.82-2.171 13.705-2.171Zm10.177 19.54a17.196 17.196 0 0 0-3.257-1.085 16.243 16.243 0 0 0-3.664-.407c-4.704 0-8.345 1.425-10.923 4.274-2.578 2.85-3.867 7.17-3.867 12.96 0 5.698 1.221 9.905 3.664 12.619 2.442 2.713 5.925 4.07 10.448 4.07 1.628 0 3.12-.18 4.478-.542 1.357-.362 2.397-.77 3.12-1.222V61.251Zm37.315-17.232c.995-.272 2.42-.543 4.275-.814 1.854-.272 3.867-.408 6.038-.408 4.523 0 7.78.747 9.77 2.24 1.99 1.492 2.985 4.364 2.985 8.616v29.852c0 3.71.905 6.355 2.714 7.938 1.81 1.584 4.433 2.375 7.87 2.375 2.08 0 3.777-.18 5.089-.543 1.311-.362 2.33-.723 3.053-1.085V44.018c.995-.272 2.42-.543 4.274-.814 1.855-.272 3.867-.408 6.039-.408 4.523 0 7.78.747 9.77 2.24 1.99 1.492 2.985 4.364 2.985 8.616v41.93c0 4.522-1.9 7.915-5.7 10.176-3.166 1.99-6.942 3.506-11.33 4.546-4.387 1.04-9.16 1.56-14.315 1.56-4.885 0-9.386-.542-13.502-1.628-4.116-1.086-7.667-2.76-10.652-5.02-2.985-2.262-5.292-5.18-6.92-8.753-1.628-3.573-2.443-7.893-2.443-12.959V44.018Zm116.154 15.876c-2.262 0-4.41.362-6.446 1.085-2.035.724-3.8 1.81-5.292 3.257s-2.691 3.234-3.596 5.36c-.904 2.126-1.357 4.59-1.357 7.395 0 5.609 1.584 9.77 4.75 12.484 3.166 2.714 7.101 4.07 11.805 4.07 2.714 0 5.111-.339 7.192-1.017 2.08-.678 3.89-1.38 5.428-2.103 1.718 1.266 3.007 2.623 3.867 4.07.86 1.448 1.289 3.212 1.289 5.293 0 3.618-1.787 6.513-5.36 8.684-3.573 2.171-8.662 3.257-15.266 3.257-5.699 0-10.832-.747-15.4-2.24-4.569-1.492-8.459-3.708-11.67-6.648-3.212-2.94-5.677-6.559-7.396-10.856-1.718-4.297-2.578-9.295-2.578-14.994 0-5.97.973-11.172 2.918-15.605 1.945-4.432 4.59-8.096 7.938-10.99 3.347-2.896 7.214-5.067 11.601-6.514 4.388-1.447 9.024-2.171 13.909-2.171 6.513 0 11.534 1.176 15.062 3.528 3.528 2.352 5.292 5.382 5.292 9.091a9.903 9.903 0 0 1-1.221 4.817c-.814 1.493-1.764 2.782-2.85 3.868-1.538-.724-3.392-1.425-5.563-2.103-2.171-.679-4.523-1.018-7.056-1.018Zm57.398 35.144c1.538 0 3.234-.158 5.088-.475 1.855-.316 3.234-.746 4.14-1.289V82.42l-9.77.814c-2.534.181-4.614.724-6.243 1.628-1.628.905-2.442 2.262-2.442 4.071 0 1.81.7 3.28 2.103 4.41 1.402 1.131 3.777 1.696 7.124 1.696Zm-1.086-53.327c4.885 0 9.34.497 13.366 1.493 4.026.995 7.463 2.51 10.313 4.545 2.85 2.036 5.043 4.614 6.581 7.735 1.538 3.12 2.307 6.807 2.307 11.059v30.395c0 2.352-.656 4.274-1.968 5.767-1.311 1.493-2.872 2.782-4.681 3.867-5.88 3.528-14.157 5.292-24.832 5.292-4.795 0-9.114-.452-12.959-1.357-3.844-.904-7.146-2.261-9.905-4.07-2.76-1.81-4.885-4.116-6.378-6.92-1.493-2.805-2.239-6.062-2.239-9.77 0-6.243 1.855-11.037 5.564-14.384 3.709-3.347 9.453-5.428 17.233-6.242l17.775-1.9v-.95c0-2.623-1.153-4.5-3.46-5.63-2.307-1.132-5.631-1.697-9.973-1.697-3.347 0-6.672.362-9.974 1.085-3.302.724-6.264 1.629-8.888 2.714-1.176-.814-2.17-2.058-2.985-3.731a11.802 11.802 0 0 1-1.221-5.224c0-2.352.565-4.23 1.696-5.632 1.13-1.402 2.872-2.6 5.224-3.596 2.624-.995 5.722-1.718 9.295-2.17 3.574-.453 6.943-.68 10.11-.68Z" fill="#2DD4BF"/><path d="M579.59 90.018c0 6.875-2.578 12.257-7.734 16.147-5.157 3.89-12.756 5.835-22.797 5.835-3.8 0-7.327-.271-10.584-.814-3.257-.543-6.038-1.38-8.345-2.51-2.307-1.131-4.116-2.556-5.428-4.275-1.311-1.719-1.967-3.754-1.967-6.106 0-2.171.452-4.003 1.357-5.496.904-1.492 1.99-2.736 3.256-3.731 2.624 1.447 5.631 2.736 9.024 3.867 3.392 1.13 7.305 1.696 11.737 1.696 2.805 0 4.953-.407 6.446-1.221 1.492-.814 2.239-1.9 2.239-3.257 0-1.266-.543-2.261-1.629-2.985-1.085-.724-2.894-1.312-5.427-1.764l-4.071-.814c-7.87-1.538-13.728-3.958-17.572-7.26-3.845-3.301-5.767-8.028-5.767-14.18 0-3.347.723-6.377 2.17-9.091 1.448-2.714 3.483-4.975 6.107-6.785 2.623-1.809 5.767-3.211 9.43-4.206 3.664-.995 7.712-1.493 12.145-1.493 3.347 0 6.49.249 9.43.747 2.94.497 5.496 1.243 7.667 2.238 2.172.996 3.89 2.285 5.157 3.868 1.266 1.583 1.9 3.46 1.9 5.631 0 2.08-.385 3.867-1.154 5.36-.769 1.493-1.741 2.736-2.917 3.731-.724-.452-1.81-.927-3.257-1.424a50.309 50.309 0 0 0-4.75-1.357 66.6 66.6 0 0 0-5.223-1.018c-1.764-.271-3.37-.407-4.818-.407-2.985 0-5.292.34-6.92 1.018-1.628.678-2.442 1.741-2.442 3.188 0 .996.452 1.81 1.357 2.443.904.633 2.623 1.221 5.156 1.764l4.206.95c8.685 1.99 14.859 4.726 18.523 8.21 3.663 3.482 5.495 7.983 5.495 13.5Zm66.761 0c0 6.875-2.578 12.257-7.734 16.147-5.157 3.89-12.755 5.835-22.797 5.835-3.8 0-7.327-.271-10.584-.814-3.257-.543-6.038-1.38-8.345-2.51-2.307-1.131-4.116-2.556-5.428-4.275-1.311-1.719-1.967-3.754-1.967-6.106 0-2.171.452-4.003 1.357-5.496.904-1.492 1.99-2.736 3.256-3.731 2.624 1.447 5.632 2.736 9.024 3.867 3.392 1.13 7.305 1.696 11.737 1.696 2.805 0 4.953-.407 6.446-1.221 1.492-.814 2.239-1.9 2.239-3.257 0-1.266-.543-2.261-1.629-2.985-1.085-.724-2.894-1.312-5.427-1.764l-4.071-.814c-7.87-1.538-13.728-3.958-17.572-7.26-3.845-3.301-5.767-8.028-5.767-14.18 0-3.347.723-6.377 2.17-9.091 1.448-2.714 3.484-4.975 6.107-6.785 2.623-1.809 5.767-3.211 9.43-4.206 3.664-.995 7.713-1.493 12.145-1.493 3.347 0 6.49.249 9.43.747 2.94.497 5.496 1.243 7.667 2.238 2.172.996 3.89 2.285 5.157 3.868 1.266 1.583 1.9 3.46 1.9 5.631 0 2.08-.385 3.867-1.154 5.36-.769 1.493-1.741 2.736-2.917 3.731-.724-.452-1.81-.927-3.257-1.424a50.309 50.309 0 0 0-4.75-1.357 66.6 66.6 0 0 0-5.223-1.018c-1.764-.271-3.37-.407-4.817-.407-2.986 0-5.292.34-6.92 1.018-1.63.678-2.443 1.741-2.443 3.188 0 .996.452 1.81 1.357 2.443.904.633 2.623 1.221 5.156 1.764l4.206.95c8.685 1.99 14.859 4.726 18.523 8.21 3.663 3.482 5.495 7.983 5.495 13.5ZM726.41 76.72c0 5.427-.837 10.312-2.51 14.655-1.674 4.342-4.07 8.028-7.192 11.059-3.12 3.03-6.852 5.36-11.195 6.988-4.342 1.628-9.227 2.442-14.654 2.442-5.428 0-10.313-.791-14.655-2.374-4.342-1.583-8.074-3.89-11.195-6.92-3.12-3.031-5.518-6.717-7.192-11.06-1.673-4.342-2.51-9.272-2.51-14.79 0-5.338.86-10.177 2.578-14.52 1.719-4.342 4.139-8.028 7.26-11.058 3.12-3.03 6.852-5.36 11.194-6.989 4.343-1.628 9.182-2.442 14.52-2.442 5.337 0 10.177.837 14.519 2.51 4.342 1.674 8.073 4.026 11.194 7.056 3.121 3.03 5.541 6.717 7.26 11.06 1.719 4.341 2.578 9.136 2.578 14.383Zm-35.55-16.962c-3.8 0-6.74 1.47-8.82 4.41-2.081 2.94-3.121 7.124-3.121 12.552 0 5.699 1.04 9.973 3.12 12.823 2.081 2.85 5.021 4.274 8.82 4.274 3.8 0 6.74-1.447 8.82-4.342 2.081-2.895 3.122-7.147 3.122-12.755 0-5.428-1.04-9.612-3.121-12.552-2.081-2.94-5.021-4.41-8.82-4.41ZM63.129 0c3.767.011 5.12.977 6.74 4.175 1.472 2.89 2.336 4.777 2.591 5.662l.028.102c.944 3.72 1.12 7.227.526 10.518-2.877 12.868-11.892 19.029-23.258 23.504a213.45 213.45 0 0 0-24.073 11.27c-4.873 2.661-8.093 5.43-12.493 10.196-4.4 4.754-8.65 12.825-8.554 19.404.014.924-.35 1.424-1.095 1.503a.531.531 0 0 1-.58-.386C-.58 73.526-.945 61.195 1.867 48.952c.687-2.994 2.017-5.742 3.252-8.565a288.009 288.009 0 0 0 4.346-9.412c.93-2.097 2.608-4.325 5.034-6.687C27.056 9.971 44.24-.053 63.13 0Z" fill="#38BDF8"/><path d="M76.599 1.095c.78.007 1.627.14 2.543.397 15.513 4.303 35.886 16.107 36.625 34.327l.016.554c.977 9.692-3.209 19.115-9.53 26.446-4.973 4.944-9.534 8.353-13.684 10.228a1138.426 1138.426 0 0 0-31.104 14.564c-3.348 1.631-5.956 3.399-7.824 5.302-6.59 6.697-10.013 14.997-10.271 24.9-.1 3.914.436 6.99 1.61 9.23 1.467 2.798.74 3.595-2.179 2.393-4.465-1.835-9.123-4.11-13.222-7.309-5.453-4.271-11.763-8.886-15.337-15.347-3.95-7.159-5.646-15.005-3.489-23.076l3.392-8.307c4.636-8.371 12.944-13.405 21.444-17.215 8.51-3.831 17-7.448 25.383-11.967 3.642-1.967 6.428-3.896 8.36-5.785 10.153-9.938 13.9-25.511 6.794-38.54a.537.537 0 0 1 .473-.795Z" fill="#2DD4BF"/><path d="M51.023 111.084c1.094-2.823 2.125-6.236 3.595-8.597 2.218-3.563 5.206-6.411 8.962-8.543 3.75-2.133 7.62-4.04 11.613-5.72a547.605 547.605 0 0 0 19.469-8.63c4.84-2.264 10.872-6.064 14.532-9.981 4.089-4.38 7.577-8.286 10.067-14.017 1.892-5.415 2.676-11.05 2.352-16.908l-.044-.704c-.1-1.346.221-1.457.966-.333.05.071.203.433.461 1.084 3.687 9.14 5.318 18.525 4.893 28.152l-.042.826c-.179 7.348-1.04 13.055-2.586 17.119a204.96 204.96 0 0 0-1.232 3.364l-.608 1.7c-1.523 4.254-3.096 8.514-5.265 12.194-3.683 6.256-8.31 10.326-13.228 14.778l-.51.462c-12.472 9.917-29.333 15.992-45.335 14.425-4.154-.408-6.654-2.715-7.384-6.654-1.517-3.857-2.075-7.417-1.674-10.68l.998-3.337Z" fill="#38BDF8"/></g></svg>
