<?xml version="1.0" encoding="UTF-8"?>
<svg width="132px" height="117px" viewBox="0 0 132 117" version="1.1" xmlns="http://www.w3.org/2000/svg" xmlns:xlink="http://www.w3.org/1999/xlink">
    <title>Group Copy</title>
    <g id="Zoonk" stroke="none" stroke-width="1" fill="none" fill-rule="evenodd">
        <g id="Group-Copy" transform="translate(0.816020, 0.000000)">
            <path d="M125.0511,71.719127 C122.401334,75.3216904 119.377331,78.0338292 115.979092,79.8555434 C115.282238,80.2265536 114.908002,80.4556122 114.595063,81.239573 C111.165637,89.8179755 102.942114,95.2669871 93.7829999,95.7251041 C90.7955608,95.8735082 86.3111759,94.4314074 82.3171697,95.4186174 C78.3618777,96.3993749 75.9970906,99.4481114 76.0132215,103.542129 C76.0196738,106.01338 76.3261605,109.013724 75.1163445,111.297857 C72.6321888,115.985491 67.4412713,117.927649 62.3245559,116.582333 C58.7531788,115.643516 55.6173355,112.28184 54.9753265,108.542702 C54.9043506,108.131902 54.850581,106.569358 54.8140177,103.855068 C54.7817559,101.560181 54.7634742,99.2642194 54.7591727,96.9671819 C54.7527203,94.7239141 54.6172209,93.1495401 54.3526745,92.24406 C52.9492878,87.4596407 47.7841797,84.6335103 43.0352484,84.7173909 C40.4381765,84.7657836 37.0700486,85.4561853 34.0664786,85.6174941 C24.8492932,86.1175514 16.0321536,82.3493776 9.5701227,75.764752 C6.42997787,72.4525444 3.95765151,68.5370419 2.15314363,64.0182444 C0.826109817,60.6974337 0.110974094,57.2303697 0.00773645542,53.6170524 C-0.0503347161,50.6210101 0.2185133,47.6303448 0.814280504,44.6450564 L2.24992891,39.9800056 C5.27930836,32.3920392 12.1220281,23.8942911 20.3745868,21.8166336 C20.5698265,21.7678072 20.7163253,21.6060216 20.745597,21.4069092 C20.9972388,19.680905 21.2295235,17.8645678 22.0296152,16.3353603 C23.3179349,13.8705616 25.1579307,11.904745 27.5496026,10.4379102 C28.074394,10.1045386 28.562622,9.90774189 29.0142866,9.84751993 L29.2239881,11.8380706 C29.3982016,12.7263445 29.802549,13.4662142 30.4370303,14.0576799 C31.0005358,14.5803204 31.7296516,14.8997119 32.6243778,15.0158542 C35.0095974,15.3234163 36.6033284,14.2071594 37.4055709,11.6670833 C37.6464587,10.9143089 37.6518357,9.9733408 37.4217018,8.84417913 L38.7734696,7.99569479 C48.9939958,1.54979475 61.8019153,-1.55378675 73.5387443,0.765833938 C80.2556432,2.09179235 87.4371114,4.59530508 93.0442056,8.60866827 C93.5539414,8.82374668 93.8582774,9.07968999 93.9572135,9.3764982 C93.7464366,9.93355129 93.6776115,10.514263 93.7507382,11.1186334 C94.1217484,13.6640864 95.8864668,14.9835924 98.4383722,14.8609977 C101.20213,14.7276491 102.534541,13.0296051 102.435604,9.76686552 C102.431303,9.64427083 102.479696,9.61846142 102.580782,9.6894373 L105.213342,11.5928813 L105.213342,11.5928813 C108.562113,14.0533783 110.194558,17.3645105 110.110678,21.5262778 C110.108527,21.6424201 110.162296,21.7187729 110.271986,21.7553363 C119.485946,24.6814781 126.025405,32.4823721 129.109629,41.6285816 C131.010922,47.005542 131.470115,52.6578027 130.487207,58.5853637 C129.627267,63.2306834 127.931986,67.438162 125.401362,71.2077994 L125.0511,71.719127 L125.0511,71.719127 Z M124.160675,54.3816561 C124.468237,50.7855451 123.999366,47.4174171 122.754062,44.2772723 C121.037736,40.225195 118.956853,36.6409132 115.243524,34.0793293 C115.15405,34.0187396 115.03263,34.0401667 114.969299,34.127722 C114.939188,34.1728884 114.940263,34.2116026 114.972525,34.2438643 C114.927359,35.5042238 114.564952,36.5097154 113.885304,37.2603391 C113.217485,37.9991334 113.640114,38.3701437 113.372342,38.9573077 C113.099192,39.5595273 112.569024,39.786435 111.781837,39.6380309 C111.261347,39.5412456 110.746234,39.4229525 110.236499,39.2831515 C110.064436,39.2379851 109.969801,39.3444489 109.952595,39.602543 C111.339851,41.0758301 112.258236,42.068417 112.70775,42.5803036 C116.157607,46.5076354 117.360971,51.3006579 116.317841,56.9593709 C116.332896,56.2560645 116.112441,55.5161948 115.656475,54.7397617 C115.097271,53.0643009 114.358476,51.5877876 113.440092,50.3102218 C110.951634,47.0410299 107.795359,45.0063881 103.971264,44.2062964 C101.841988,43.7610841 99.3223445,44.0127258 97.00595,44.0837017 C92.733461,44.2143392 88.0046272,43.2362322 84.8484226,40.8481641 L84.848,43.596 L85.1916927,43.6255847 C85.6954229,45.0830687 86.1529087,46.1874906 87.3220862,47.1033616 L89.042463,47.1021725 L89.0422152,50.0711756 C89.9869117,50.4978264 90.9725096,50.849551 91.9989245,51.1264444 C94.2540217,51.7329655 96.8156056,51.5974661 99.2739518,51.5555258 C102.872562,51.4904729 105.685215,52.3821182 107.858471,55.1669401 L115.17449,55.167613 L115.17449,63.5556711 L113.643,63.555 L113.220712,63.8988759 C112.618492,64.2296187 112.092745,64.3963709 111.64347,64.3991324 L111.478576,64.3924809 C110.497819,64.5839007 109.574057,64.4139887 108.707291,63.882745 C108.590625,63.7724852 108.474757,63.6632867 108.359613,63.5551635 L107.431667,63.5556711 L107.431134,62.6937752 C103.346703,58.9593391 99.969611,56.7137633 93.7926785,56.6464318 C91.1956066,56.6206224 88.9695451,56.7496695 86.5370082,55.6914837 C84.824984,54.9451616 82.5892439,53.9041821 79.8297879,52.5685451 C77.9306455,51.6480095 75.210979,50.7973744 71.6707883,50.0166397 C69.113506,49.5413165 66.5723545,49.3541982 64.0473339,49.4552851 C56.4335581,49.6101415 50.7899006,52.7180246 47.1163613,58.7789343 C46.7937436,59.3144795 46.2711031,60.4318119 45.5484396,62.1309314 C45.0559101,63.2945056 44.4816507,64.4333458 43.8256615,65.547452 C42.3884317,67.4522876 40.5815944,68.9055925 38.4051497,69.9073667 L37.992735,70.089908 L37.992735,70.089908 C32.9082813,72.1675655 27.097938,71.1674509 22.7361478,67.9541794 C14.5158508,61.9018729 11.6510063,50.6102562 17.4452188,41.7285931 C18.1420729,40.4660828 19.017442,39.3465997 20.0713262,38.3701437 C21.477939,37.0667685 23.5201086,36.1473083 25.3009578,35.1246104 C27.3442028,32.907152 27.3355996,30.8187406 25.2751484,28.8593763 C23.7308854,27.8979757 22.1339282,27.8237737 20.4842768,28.6367701 C15.681065,31.0022025 11.4053572,36.2811744 9.19711246,41.0738153 L9.03135128,41.4414634 L8.147379,43.9256191 C7.07968448,47.3609873 6.71077436,50.9324448 7.04064864,54.6399915 L7.10209791,55.2591761 L7.10209791,55.2591761 C7.4419218,58.9542232 8.59259131,62.3804223 10.5541064,65.5377734 C12.2962416,68.7596481 14.6061837,71.4040371 17.4839329,73.4709407 C22.2737292,77.1229721 27.6109,78.9016706 33.4954454,78.8070361 C35.8311969,78.768322 38.4927923,78.2295506 40.9511386,77.7940168 C44.6225271,77.1466308 48.1100235,77.6972315 51.413628,79.445819 C55.1075997,81.3944294 59.8436264,85.6303988 61.192168,89.6663452 C61.7922368,91.4600992 62.1998104,92.5989394 62.4148888,93.0828658 L62.4310197,97.0865504 C62.3019726,100.138513 62.3471391,103.142083 62.2245444,106.129522 C62.1180806,108.771761 64.5667483,111.375285 67.2218913,109.891244 C68.9543479,108.923391 69.2511561,107.545814 69.3060011,105.523001 C69.3511676,103.864747 69.3619215,102.204341 69.3382629,100.541785 C69.3640723,96.3509823 72.8967352,92.4795708 76.6036117,91.0245654 C77.6617975,90.6083886 78.5360912,90.2922234 79.3071474,89.4824531 C80.8858229,87.8263494 80.839581,86.0938928 79.1684218,84.2850833 C79.2652071,84.1710917 79.4824363,84.0474217 79.8201094,83.914073 C80.4933048,83.6473758 81.2095159,83.6247926 81.9687427,83.8463233 C85.9692012,87.6015924 90.6417797,89.125423 95.9864783,88.417815 C100.374078,87.8349525 103.961586,85.6422281 106.749002,81.8396417 C107.96527,80.178161 109.533192,76.4357966 111.833456,74.3323297 C112.188335,74.0075613 112.918526,73.458036 114.024029,72.6837537 C116.426455,71.0018405 118.424534,68.9403139 120.018265,66.4991739 C122.668031,62.862198 124.048834,58.8230254 124.160675,54.3816561 Z M51.1490815,22.4521903 C49.5488981,22.9963387 48.7100923,24.2255118 48.6326641,26.1397097 C48.4326412,27.3075855 48.3294035,28.4776121 48.3229512,29.6497894 C48.3035941,32.0113504 47.8164415,34.2341858 46.8292316,36.1021418 C45.3150796,38.9745773 43.2236541,41.9203627 40.5549552,44.939498 L40.0478092,45.5064454 C37.5615028,48.5218448 34.7977452,51.3275427 31.7565364,53.9235391 C28.7798512,54.1966887 26.9516847,55.8452647 26.2720369,58.8692672 C26.1300851,62.0309199 27.3312981,64.1677239 29.8756757,65.2796793 C34.1955256,67.1669924 38.4121379,63.9601733 38.2476029,59.4306219 C38.2443767,59.249956 38.2701861,59.0886472 38.4056855,58.9531478 C43.6417695,53.5847906 49.4166249,47.109855 53.1944772,40.3155279 C55.4635545,36.2182842 56.5712083,31.7951966 56.5174387,27.0462652 C57.1852572,23.874934 54.1300683,21.4359448 51.1490815,22.4521903 Z M28.4303487,21.8005027 C29.0777348,22.8113713 29.8670725,23.7480378 30.7983621,24.6105022 C32.1060388,26.1375589 33.0373283,27.6721434 33.5922307,29.2142556 C35.1407952,33.524427 32.0823802,37.9120267 28.4980984,40.1122788 C25.5719566,41.909259 21.9812225,43.7514056 19.7390301,45.9677886 C18.1840131,47.5055993 16.9021458,49.2756946 15.893428,51.2780746 C14.7126476,53.1664631 14.6298424,55.0236652 15.6450125,56.8496809 C16.0751693,57.6239632 16.6548056,58.1455284 17.3839214,58.4143764 C19.7390301,59.2822178 21.623117,57.8175338 22.3780422,55.623734 C23.1652292,53.3288473 24.5696912,51.553375 26.5914283,50.2973171 C28.4798168,49.1229889 30.3735822,47.9561885 32.2727246,46.7969159 C36.5441819,44.185864 39.4014986,40.5144755 40.8446747,35.7827504 C41.8125276,32.1113619 41.5877707,28.7927019 40.1704039,25.8267706 L38.5508635,22.5909159 C37.9938104,21.7972766 37.4292295,20.9530938 36.857121,20.0583676 C36.0462753,18.7851034 35.4483574,17.9742578 35.063367,17.6258307 C31.969464,14.828736 27.0140574,17.4322602 28.4303487,21.8005027 Z M72.6805814,40.1961594 C72.5708915,41.3866184 72.8796151,42.2603325 73.005436,43.4249821 C73.0075327,43.4585296 73.1730691,44.1426263 73.3268524,45.1055666 L73.3387214,45.1806016 C73.2759185,44.7796955 73.2255041,44.4562175 73.1874782,44.2101678 L73.1535819,43.9899275 C73.1386985,43.8927121 73.1269122,43.8148537 73.118223,43.7563524 L73.1049742,43.6651591 C73.1019344,43.6433645 73.1002711,43.630173 73.0999844,43.6255847 C72.9741635,42.4609351 72.5708915,41.3866184 72.6805814,40.1961594 Z M69.802,21.134 L69.7512757,21.1554911 C69.1237152,21.3814955 67.6275259,21.4327623 66.1296267,21.4610592 L65.6314528,21.4698489 C63.6480174,21.5032703 61.8327854,21.525835 62.2406753,21.897288 C62.3165186,21.9649734 62.3589565,22.0616375 62.3568176,22.1618345 L69.4995717,35.0069149 C68.1639348,36.1855446 71.2487851,36.7080297 71.0853255,38.4501648 C70.9114293,40.0304623 70.1309949,41.3496706 69.4855723,42.326367 L69.3274586,42.5633583 C68.4265426,43.9036332 67.9441846,44.5010451 70.1802949,44.1030619 C73.2967811,43.5513858 72.2418215,41.3543567 71.9643703,38.1410852 C71.8353233,36.319371 71.0137237,34.8557624 69.4995717,33.7502594 L69.3092273,22.1392512 C69.3073228,22.0354829 69.3551328,21.9362771 69.4382744,21.8714786 C69.6590127,21.7022459 69.7587323,21.4805095 69.7941109,21.2279061 L69.802,21.134 Z M108.565302,28.99184 L108.352412,29.0271374 L108.352412,29.0271374 C107.115711,29.2056525 106.010208,30.0584384 105.035903,31.5854951 L104.739094,34.5180893 C105.321957,37.2151726 107.046886,38.6658765 109.913881,38.870201 C112.404489,38.7454555 113.949827,37.4754175 114.549896,35.0600869 C115.316173,31.0418844 112.312694,28.4284051 108.565302,28.99184 Z M95.7154795,18.6872427 C94.1303516,21.3370088 92.7646037,23.8545016 91.6182357,26.2397212 C90.4858479,29.5400994 90.250337,36.0827848 94.370164,37.7507178 C97.1446755,38.8734272 100.206317,36.4699259 99.9095085,33.4760344 C99.8497645,32.8714251 99.5430786,32.30576 99.2262961,31.7498638 L99.0369097,31.4172649 C98.5698887,30.5875313 98.1867304,29.7666487 98.6867878,28.8561501 C99.6137757,27.1656337 100.920377,25.1019564 102.606592,22.665118 C103.428191,21.439171 103.601329,20.268069 103.126006,19.1518121 C101.819405,16.0772662 97.4672932,15.7546485 95.7154795,18.6872427 Z M70.484,17.261 L70.4073458,17.4472677 C70.1117591,18.162245 69.916707,18.6314904 69.8221893,18.8550039 C69.511684,19.5201622 69.8390352,20.3861924 69.8080706,21.072813 L69.802,21.134 L69.8476776,21.1161797 C69.9944472,21.0478775 70.0704768,20.9654418 70.0571853,20.8656199 L70.0383431,20.8036143 C69.8753285,20.1858201 70.1116568,18.7786644 70.4666099,17.3325163 L70.484,17.261 Z M59.5823061,6.91169959 C53.9106883,7.8053504 47.4518836,9.51522378 43.2384975,13.1220888 C41.0059836,15.3158886 41.2543991,19.3905491 44.8128715,20.084177 C46.8260054,20.2035455 52.8589549,14.5746542 54.252663,13.2906361 L54.373,13.18 L54.3598424,13.1778324 C54.2376425,13.1565279 54.103803,13.1348672 53.9682499,13.1131914 L53.7648759,13.080709 C52.8213804,12.9294687 52.0371121,12.785837 54.8167388,12.7667438 L54.832,12.766 L54.8954077,12.7117296 C55.7407627,11.9737633 55.5221637,12.3044065 55.2217578,12.7169607 L55.186,12.764 L55.7108356,12.7647784 C55.9600746,12.7651848 56.229151,12.7662833 56.5193057,12.7681167 L56.7710863,12.7693889 L57.4790398,12.7690813 C61.5882267,12.7482986 61.715493,12.3809659 57.8608386,11.6670833 L71.6707883,13.4728189 C71.3838924,14.1411293 70.9148518,15.574414 70.5443846,17.022304 L70.484,17.261 L70.4904529,17.2461813 C70.6331191,16.9008832 70.7965569,16.504814 70.9807662,16.0579737 C71.2650002,14.9218118 71.4950075,14.3088304 71.6707883,14.2190296 C72.1656304,14.8167212 76.0219465,14.8729168 76.4156435,15.6728014 C78.4791338,16.2677062 80.382423,17.2358083 82.1235992,18.5775527 C83.0742458,19.3109701 83.7786276,19.7518809 84.2367446,19.900285 C85.7917615,20.3992669 87.2392392,19.9970702 88.5791777,18.6936951 C89.5642369,16.9257505 89.3652893,15.1728614 87.9823351,13.4350279 C87.1843942,12.5596587 86.4477507,11.9509868 85.7724044,11.6090121 C77.8392372,7.57306571 68.460743,5.51153912 59.5823061,6.91169959 Z M55.186,12.764 L55.0213905,12.7655934 L54.832,12.766 L54.7887953,12.805478 C54.6769501,12.904482 54.5492183,13.0194424 54.4039027,13.1520641 L54.373,13.18 L54.4199264,13.1884535 C54.5969928,13.220218 54.7441475,13.2510536 54.82789,13.2798096 L54.829,13.28 L54.8412461,13.2585347 C54.9084137,13.1424392 55.0510125,12.9505098 55.1853793,12.7667973 L55.186,12.764 Z" id="Combined-Shape" fill="#2563EB" fill-rule="nonzero"></path>
            <rect id="Rectangle" fill="#2563EB" x="59.4209973" y="17.2419158" width="11.6142343" height="6.12973477"></rect>
            <circle id="Oval" fill="#01F4CA" cx="33.5522324" cy="10.6463814" r="4.83926429"></circle>
            <rect id="Rectangle" fill="#2563EB" x="78.1328192" y="83.0559102" width="4.19402905" height="1.6130881"></rect>
            <circle id="Oval" fill="#01F4CA" cx="98.0757564" cy="10.3237638" r="4.83926429"></circle>
            <rect id="Rectangle" fill="#2563EB" x="70.3899963" y="14.3383572" width="1.29047048" height="3.2261762"></rect>
            <path d="M85.9245114,68.6489102 L85.7594997,68.9026752 L85.7594997,68.9026752 C83.9205793,72.4482428 85.1884666,76.5229034 88.0629895,79.1199752 L88.6082133,79.4813069 C91.3924034,84.81095 98.3899796,84.6044747 100.438601,78.8263932 C100.587006,78.4091411 100.646152,77.8026199 100.616041,77.0068298 C100.732183,77.2778286 100.81929,77.3552568 100.877361,77.2391145 C101.316121,76.8584257 101.725846,76.571296 102.012975,76.0422031 C103.811031,72.7342971 103.371196,69.7210486 100.693469,67.0024574 C96.1596164,62.6749773 89.3885708,63.4749178 85.9245114,68.6489102 Z M48.6326641,26.1397097 C50.0457293,29.9498238 54.362353,30.3111555 56.5174387,27.0462652 C56.5712083,31.7951966 55.4635545,36.2182842 53.1944772,40.3155279 C49.4166249,47.109855 43.6417695,53.5847906 38.4056855,58.9531478 C38.2701861,59.0886472 38.2443767,59.249956 38.2476029,59.4306219 L38.0895203,58.8079699 C37.1388737,55.5710398 35.0278791,53.9428962 31.7565364,53.9235391 C34.7977452,51.3275427 37.5615028,48.5218448 40.0478092,45.5064454 C42.9599709,42.2888724 45.2204451,39.1541045 46.8292316,36.1021418 C47.8164415,34.2341858 48.3035941,32.0113504 48.3229512,29.6497894 C48.3294035,28.4776121 48.4326412,27.3075855 48.6326641,26.1397097 Z M103.126006,19.1518121 C103.601329,20.268069 103.428191,21.439171 102.606592,22.665118 C100.920377,25.1019564 99.6137757,27.1656337 98.6867878,28.8561501 C97.7866846,30.4950476 99.7481997,31.8435892 99.9095085,33.4760344 C100.206317,36.4699259 97.1446755,38.8734272 94.370164,37.7507178 C90.250337,36.0827848 90.4858479,29.5400994 91.6182357,26.2397212 C92.7646037,23.8545016 94.1303516,21.3370088 95.7154795,18.6872427 C97.4672932,15.7546485 101.819405,16.0772662 103.126006,19.1518121 Z M85.7724044,11.6090121 C86.4477507,11.9509868 87.1843942,12.5596587 87.9823351,13.4350279 C89.3652893,15.1728614 89.5642369,16.9257505 88.5791777,18.6936951 C87.2392392,19.9970702 85.7917615,20.3992669 84.2367446,19.900285 C83.7786276,19.7518809 83.0742458,19.3109701 82.1235992,18.5775527 C79.0952951,16.2439519 73.7883164,14.7000754 69.7792548,14.6269487 C68.6848856,14.6248442 68.0457061,14.202308 65.1608499,14.4174363 C59.2010344,14.8618692 51.3406184,16.6668679 49.6101955,18.2581613 C48.2164874,19.5421794 46.8260054,20.2035455 44.8128715,20.084177 C41.2543991,19.3905491 41.0059836,15.3158886 43.2384975,13.1220888 C47.4518836,9.51522378 53.9106883,7.8053504 59.5823061,6.91169959 C68.460743,5.51153912 77.8392372,7.57306571 85.7724044,11.6090121 Z M120.018265,66.4991739 C118.424534,68.9403139 116.426455,71.0018405 114.024029,72.6837537 C112.918526,73.458036 112.188335,74.0075613 111.833456,74.3323297 C109.533192,76.4357966 107.96527,80.178161 106.749002,81.8396417 C103.961586,85.6422281 100.374078,87.8349525 95.9864783,88.417815 C90.6417797,89.125423 85.9692012,87.6015924 81.9687427,83.8463233 C77.8779513,79.610354 76.1358162,73.5548213 78.0715219,67.7960968 C78.7361142,65.7786612 79.813657,63.8418801 81.3041504,61.9857534 C81.3815786,61.8889681 81.3794279,61.7932583 81.2976981,61.6986238 C81.0783181,61.4426804 80.7729067,61.2286774 80.381464,61.0566147 C77.4606992,59.7898028 75.554029,58.986485 74.6614536,58.6466611 C71.8116647,57.5820229 68.9091815,57.0389499 65.9540041,57.0174421 C63.3537061,57.0002358 61.2308821,57.2733854 59.5855323,57.8368908 C56.1044882,59.0273499 52.6653843,62.6213101 52.8137884,66.573376 C52.8568041,67.7455533 53.2590007,68.9489171 54.0203783,70.1834671 C55.9195207,73.26339 58.7252186,75.3044842 62.437472,76.3067496 L62.4277935,79.500664 L62.4148888,93.0828658 C62.1998104,92.5989394 61.7922368,91.4600992 61.192168,89.6663452 C59.8436264,85.6303988 55.1075997,81.3944294 51.413628,79.445819 C48.1100235,77.6972315 44.6225271,77.1466308 40.9511386,77.7940168 C38.4927923,78.2295506 35.8311969,78.768322 33.4954454,78.8070361 C27.6109,78.9016706 22.2737292,77.1229721 17.4839329,73.4709407 C14.6061837,71.4040371 12.2962416,68.7596481 10.5541064,65.5377734 C8.59259131,62.3804223 7.4419218,58.9542232 7.10209791,55.2591761 C6.67194108,51.3296935 7.02036811,47.5518411 8.147379,43.9256191 L9.03135128,41.4414634 C11.186437,36.5538065 15.5579057,31.0628546 20.4842768,28.6367701 C22.1339282,27.8237737 23.7308854,27.8979757 25.2751484,28.8593763 C27.3355996,30.8187406 27.3442028,32.907152 25.3009578,35.1246104 C23.5201086,36.1473083 21.477939,37.0667685 20.0713262,38.3701437 C19.1345402,39.2381046 18.3388032,40.2190745 17.6841152,41.3130536 L17.4452188,41.7285931 C11.6510063,50.6102562 14.5158508,61.9018729 22.7361478,67.9541794 C27.097938,71.1674509 32.9082813,72.1675655 37.992735,70.089908 C40.354296,69.0854918 42.2986048,67.5713398 43.8256615,65.547452 C44.4816507,64.4333458 45.0559101,63.2945056 45.5484396,62.1309314 C46.2711031,60.4318119 46.7937436,59.3144795 47.1163613,58.7789343 C50.7899006,52.7180246 56.4335581,49.6101415 64.0473339,49.4552851 C66.5723545,49.3541982 69.113506,49.5413165 71.6707883,50.0166397 C75.210979,50.7973744 77.9306455,51.6480095 79.8297879,52.5685451 C82.5892439,53.9041821 84.824984,54.9451616 86.5370082,55.6914837 C88.9695451,56.7496695 91.1956066,56.6206224 93.7926785,56.6464318 C100.59991,56.7206339 104.006752,59.4403004 108.707291,63.882745 C109.574057,64.4139887 110.497819,64.5839007 111.478576,64.3924809 C111.962503,64.4354966 112.543215,64.2709616 113.220712,63.8988759 L114.536991,62.8310116 L115.230619,62.0276937 C115.69949,61.806163 115.962961,61.392137 116.021032,60.7856159 C116.625403,59.280067 116.724339,58.004652 116.317841,56.9593709 C117.360971,51.3006579 116.157607,46.5076354 112.70775,42.5803036 C112.258236,42.068417 111.339851,41.0758301 109.952595,39.602543 C109.969801,39.3444489 110.064436,39.2379851 110.236499,39.2831515 C110.746234,39.4229525 111.261347,39.5412456 111.781837,39.6380309 C112.569024,39.786435 113.099192,39.5595273 113.372342,38.9573077 C113.640114,38.3701437 113.217485,37.9991334 113.885304,37.2603391 C114.564952,36.5097154 114.927359,35.5042238 114.972525,34.2438643 C114.940263,34.2116026 114.939188,34.1728884 114.969299,34.127722 C115.03263,34.0401667 115.15405,34.0187396 115.243524,34.0793293 C118.956853,36.6409132 121.037736,40.225195 122.754062,44.2772723 C123.999366,47.4174171 124.468237,50.7855451 124.160675,54.3816561 C124.048834,58.8230254 122.668031,62.862198 120.018265,66.4991739 Z" id="Combined-Shape" fill="#01F4CA" fill-rule="nonzero"></path>
            <rect id="Rectangle" fill="#01F4CA" x="88.7198454" y="80.3317873" width="12.5820872" height="3.54879382"></rect>
            <circle id="Oval" fill="#01F4CA" cx="110.071964" cy="33.6954144" r="6.45235239"></circle>
            <path d="M19.7390301,45.9677886 C21.9812225,43.7514056 25.5719566,41.909259 28.4980984,40.1122788 C32.0823802,37.9120267 35.1407952,33.524427 33.5922307,29.2142556 C33.0373283,27.6721434 32.1060388,26.1375589 30.7983621,24.6105022 C29.8670725,23.7480378 29.0777348,22.8113713 28.4303487,21.8005027 C27.0140574,17.4322602 31.969464,14.828736 35.063367,17.6258307 C35.4483574,17.9742578 36.0462753,18.7851034 36.857121,20.0583676 C37.4292295,20.9530938 37.9938104,21.7972766 38.5508635,22.5909159 L40.1704039,25.8267706 C41.5877707,28.7927019 41.8125276,32.1113619 40.8446747,35.7827504 C39.4014986,40.5144755 36.5441819,44.185864 32.2727246,46.7969159 C30.3735822,47.9561885 28.4798168,49.1229889 26.5914283,50.2973171 C24.5696912,51.553375 23.1652292,53.3288473 22.3780422,55.623734 C21.623117,57.8175338 19.7390301,59.2822178 17.3839214,58.4143764 C16.6548056,58.1455284 16.0751693,57.6239632 15.6450125,56.8496809 C14.6298424,55.0236652 14.7126476,53.1664631 15.893428,51.2780746 C16.9021458,49.2756946 18.1840131,47.5055993 19.7390301,45.9677886 Z" id="Combined-Shape" fill="#01F4CA" fill-rule="nonzero"></path>
            <path d="M56.5174387,27.0462652 C54.362353,30.3111555 50.0457293,29.9498238 48.6326641,26.1397097 C48.7100923,24.2255118 49.5488981,22.9963387 51.1490815,22.4521903 C54.1300683,21.4359448 57.1852572,23.874934 56.5174387,27.0462652 Z" id="Path" fill="#01F4CA" fill-rule="nonzero"></path>
            <rect id="Rectangle" fill="#2563EB" x="93.618465" y="43.0513253" width="18.7118219" height="5.80711715"></rect>
            <path d="M121.479723,60.5081647 C121.886221,61.5534458 121.787285,62.8288608 121.182914,64.3344097 L120.392501,65.5764875 L119.698873,66.3798054 L119.653707,66.2507584 C119.612842,66.134616 119.534338,66.0969773 119.418196,66.1378422 C117.81156,66.6991969 116.156532,66.7637204 114.940263,65.2958102 C114.069196,64.241926 113.694959,63.1224428 113.817554,61.9373608 C113.917566,60.9566032 114.007899,60.1500592 113.598174,59.524181 C111.352756,56.1012081 108.36209,55.0333437 104.435834,55.1043196 C101.977487,55.1462599 99.4159036,55.2817593 97.1608064,54.6752382 C92.9990391,53.5525289 89.5083165,51.199571 86.6886385,47.6163647 L86.0950221,46.816273 C84.1367331,44.2998555 83.0237023,41.1317505 81.8848621,37.9539669 C81.3170551,36.2924862 80.362107,33.5889506 80.5395467,31.656471 C80.8040931,28.8077574 84.2593278,27.1946693 86.6305673,28.8077574 C88.1375038,29.835971 88.4264833,31.3529788 88.6133634,32.9394678 L88.6674804,33.4170796 C88.7474089,34.1353661 88.8292584,34.8592314 89.0147115,35.5504657 C90.5858593,41.415654 95.7316104,47.8292923 102.167832,47.6324955 C104.484226,47.5615197 107.00387,47.3098779 109.133146,47.7550902 C112.820666,48.5266072 115.887216,50.4460668 118.332798,53.5134691 L118.601973,53.8590156 L118.601973,53.8590156 C119.520358,55.1365814 120.259153,56.6130947 120.818356,58.2885555 C121.274323,59.0649886 121.494778,59.8048583 121.479723,60.5081647 Z" id="Combined-Shape" fill="#01F4CA" fill-rule="nonzero"></path>
            <path d="M38.2476029,59.4306219 C38.4121379,63.9601733 34.1955256,67.1669924 29.8756757,65.2796793 C27.3312981,64.1677239 26.1300851,62.0309199 26.2720369,58.8692672 C26.9516847,55.8452647 28.7798512,54.1966887 31.7565364,53.9235391 C35.0278791,53.9428962 37.1388737,55.5710398 38.0895203,58.8079699 L38.2476029,59.4306219 Z" id="Combined-Shape" fill="#01F4CA" fill-rule="nonzero"></path>
            <path d="M74.6614536,58.6466611 C75.554029,58.986485 77.4606992,59.7898028 80.381464,61.0566147 C80.7729067,61.2286774 81.0783181,61.4426804 81.2976981,61.6986238 C81.3794279,61.7932583 81.3815786,61.8889681 81.3041504,61.9857534 C79.813657,63.8418801 78.7361142,65.7786612 78.0715219,67.7960968 C76.1358162,73.5548213 77.8779513,79.610354 81.9687427,83.8463233 C81.2095159,83.6247926 80.4933048,83.6473758 79.8201094,83.914073 C79.4824363,84.0474217 79.2652071,84.1710917 79.1684218,84.2850833 C76.1454947,81.9751411 72.0837388,84.1463577 69.7092732,86.3724193 C69.6692338,86.4114124 69.6097053,86.4225704 69.5582623,86.4007248 C69.5068193,86.3788791 69.4735094,86.3282966 69.4737623,86.2724078 L69.3931079,72.4224334 C69.3911364,72.3167257 69.4291614,72.2141733 69.4995717,72.1353037 C70.8072485,70.668469 71.3987141,69.0327976 71.2739686,67.2282898 C70.6900307,60.9501509 61.5115595,61.1017812 60.7017892,67.3670153 C60.4738061,69.1091505 61.0136529,70.5942669 62.3213297,71.8223647 C62.4030595,71.8997929 62.4439244,71.9955028 62.4439244,72.1094943 L62.437472,76.3067496 C58.7252186,75.3044842 55.9195207,73.26339 54.0203783,70.1834671 C53.2590007,68.9489171 52.8568041,67.7455533 52.8137884,66.573376 C52.6653843,62.6213101 56.1044882,59.0273499 59.5855323,57.8368908 C61.2308821,57.2733854 63.3537061,57.0002358 65.9540041,57.0174421 C68.9091815,57.0389499 71.8116647,57.5820229 74.6614536,58.6466611 Z" id="Path" fill="#2563EB" fill-rule="nonzero"></path>
            <rect id="Rectangle" fill="#2563EB" x="60.0662325" y="28.8561501" width="13.2273224" height="16.7761162"></rect>
            <path d="M116.021032,60.7856159 C115.962961,61.392137 115.69949,61.806163 115.230619,62.0276937 L116.021032,60.7856159 Z" id="Path" fill="#0383BD" fill-rule="nonzero"></path>
            <path d="M100.693469,67.0024574 C103.371196,69.7210486 103.811031,72.7342971 102.012975,76.0422031 C101.725846,76.571296 101.316121,76.8584257 100.877361,77.2391145 C100.81929,77.3552568 100.732183,77.2778286 100.616041,77.0068298 L100.425697,75.5292411 C99.0255363,68.4445582 88.163001,69.447899 88.2081675,77.1003889 L88.6082133,79.4813069 L88.0629895,79.1199752 C85.1884666,76.5229034 83.9205793,72.4482428 85.7594997,68.9026752 C89.169568,63.5020562 96.0864897,62.6051793 100.693469,67.0024574 Z" id="Path" fill="#211F6C" fill-rule="nonzero"></path>
            <rect id="Rectangle" fill="#01F4CA" x="62.3245559" y="13.0478867" width="7.09758763" height="20.6475277"></rect>
            <path d="M69.3060011,105.523001 C69.2511561,107.545814 68.9543479,108.923391 67.2218913,109.891244 C64.5667483,111.375285 62.1180806,108.771761 62.2245444,106.129522 C62.3471391,103.142083 62.3019726,100.138513 62.4310197,97.0865504 L62.4148888,93.0828658 L62.4277935,79.500664 L62.437472,76.3067496 L62.4439244,72.1094943 C62.4439244,71.9955028 62.4030595,71.8997929 62.3213297,71.8223647 C61.0136529,70.5942669 60.4738061,69.1091505 60.7017892,67.3670153 L61.1244183,67.0089098 C61.2018465,66.9443862 61.2900287,66.9185768 61.3889648,66.9314815 C61.9202084,66.9960051 62.3923056,66.9798742 62.8052561,66.8830889 C63.7967676,66.6465026 64.7560173,66.5669236 65.6830053,66.6443519 C66.5497713,66.7153277 67.2477007,66.7475895 67.7767936,66.7411371 C68.9769312,66.7282324 70.1426562,66.8906166 71.2739686,67.2282898 C71.3987141,69.0327976 70.8072485,70.668469 69.4995717,72.1353037 C69.4291614,72.2141733 69.3911364,72.3167257 69.3931079,72.4224334 L69.4737623,86.2724078 C69.4735094,86.3282966 69.5068193,86.3788791 69.5582623,86.4007248 C69.6097053,86.4225704 69.6692338,86.4114124 69.7092732,86.3724193 C72.0837388,84.1463577 76.1454947,81.9751411 79.1684218,84.2850833 C80.839581,86.0938928 80.8858229,87.8263494 79.3071474,89.4824531 C78.5360912,90.2922234 77.6617975,90.6083886 76.6036117,91.0245654 C72.8967352,92.4795708 69.3640723,96.3509823 69.3382629,100.541785 C69.3619215,102.204341 69.3511676,103.864747 69.3060011,105.523001 Z" id="Combined-Shape" fill="#01F4CA" fill-rule="nonzero"></path>
            <path d="M66.6759157,38.3997971 C63.5975866,38.9448058 60.761182,36.6093858 60.9762947,33.4866475 L60.9937955,33.2824803 L61.0267955,33.4334803 L60.994679,33.281896 C61.126599,31.8832793 61.7315214,30.7108586 62.8094462,29.764634 C64.6146666,28.5127857 66.5561463,28.4799786 68.6338855,29.6662128 C69.8558808,30.55373 70.5189521,31.7287407 70.6230995,33.1912449 C70.8470162,35.7709157 69.1910737,37.9569018 66.6759157,38.3997971 Z" id="Combined-Shape" fill="#01F4CA" fill-rule="nonzero"></path>
            <path d="M69.2668319,63.0401163 C70.6132897,64.0180289 71.3781101,65.295118 71.5612929,66.8713836 L71.5875815,67.1526538 L71.5875815,67.1526538 C71.8488178,70.1622698 69.9168848,72.7125869 66.9825339,73.2292981 C63.3130764,73.8789642 59.938269,71.0204334 60.3544244,67.2584134 C60.508331,65.6266939 61.2140738,64.2588698 62.4716527,63.1549411 C64.5777431,61.6944514 66.8428029,61.6561765 69.2668319,63.0401163 Z" id="Combined-Shape-Copy-4" fill="#01F4CA" fill-rule="nonzero"></path>
            <circle id="Oval" fill="#2563EB" fill-rule="nonzero" cx="93.8717927" cy="72.9990941" r="9.35591097"></circle>
            <rect id="Rectangle" fill="#01F4CA" x="114.58861" y="59.5048239" width="1.93570572" height="3.2261762"></rect>
        </g>
    </g>
</svg>