<svg width="406" height="116" viewBox="0 0 406 116" xmlns="http://www.w3.org/2000/svg"><g fill="none" fill-rule="evenodd"><g transform="translate(.66)"><path d="m61.883 10.923-3.972.194c-.239.011-.358-.1-.358-.335-.006-1.651.258-3.525-.781-4.818-1.24-1.533-3.684-1.598-5.035-.035-1.052 1.21-.735 3.472-.846 4.964-.02.22-.14.323-.359.312l-4.688-.235m51.725 19.505.129 4.87a.46.46 0 0 0 .3.435c4.153 1.822 6.815 5.37 4.835 10.059-.917 2.166-2.515 3.539-4.794 4.118-.2.051-.3.178-.3.382l-.059 5.018M82.094 72.806l-56.12-.088M10.752 55.28l-.06-5.058a.394.394 0 0 0-.305-.382c-7.356-1.816-7.074-11.58.053-13.872.188-.058.284-.188.288-.387l.053-5.247m92.07 84.315-.694-5.752a.376.376 0 0 0-.581-.27c-2.75 1.839-5.547 3.519-8.784 4.647-1.245.435-2.507.9-3.783 1.398m-7.55.1-4.577-37.077c-.023-.188-.127-.282-.311-.282l-44.886-.082c-.235 0-.365.115-.388.346l-4.23 37.125m-7.567-.147c-4.642-1.743-8.948-3.845-12.92-6.304-.215-.134-.337-.075-.364.176l-.576 6.092" stroke="#53A3B8"/><path d="M86.763 32.735c.012-6.418-5.182-11.63-11.6-11.641l-41.773-.073a11.621 11.621 0 0 0-11.641 11.6l-.034 19.13c-.01 6.418 5.183 11.63 11.601 11.642l41.773.072a11.621 11.621 0 0 0 11.64-11.6l.034-19.13" stroke="#CFF4F7"/><path d="M43.429 38.442a6.187 6.187 0 1 0-12.373 0 6.187 6.187 0 0 0 12.373 0m33.635-.029a6.157 6.157 0 1 0-12.314 0 6.157 6.157 0 0 0 12.314 0m-17.096 8.213c-2.674 3.143-5.652 4.782-9.336 2.262-1.251-.852-2.938-3.784-4.765-2.274-1.5 1.238-1.588 2.717-.264 4.436 3.754 4.865 11.022 5.834 15.645 1.774 2.016-1.768 3.637-3.566 1.422-6.04-.368-.41-1.114-.546-2.238-.405a.718.718 0 0 0-.464.247" stroke="#83AFC0"/><path d="M16.885 86.307c2.05 2.027 4.606 3.525 7.49 5.094a.335.335 0 0 0 .494-.259l1.41-12.35a.251.251 0 0 0-.11-.235.237.237 0 0 0-.254-.005 37.731 37.731 0 0 0-9.042 7.214.394.394 0 0 0 .012.54m67.036 4.842c2.732-1.187 5.328-2.908 7.532-4.865a.323.323 0 0 0 .023-.47 41.383 41.383 0 0 0-9.124-7.279.264.264 0 0 0-.4.253l1.434 12.05c.015.122.086.23.191.291a.378.378 0 0 0 .344.02m-70.585-1.245-2.103 3.965a.497.497 0 0 0 .135.623 33.774 33.774 0 0 0 12.109 6.022c.25.067.388-.03.411-.288l.3-3.548a.987.987 0 0 0-.658-1.017 29.952 29.952 0 0 1-9.964-5.799c-.094-.086-.17-.072-.23.042m81.072.311c-3.05 2.99-6.486 3.825-10.117 5.722-.153.083-.218.208-.194.376l.5 3.778c.012.09.062.17.136.219.074.05.166.064.251.04a33.225 33.225 0 0 0 11.839-5.97c.235-.184.276-.405.123-.664l-2.074-3.442c-.13-.22-.284-.24-.464-.06m-8.49 20.129c5.059-1.21 10.37-3.672 14.747-6.374a.44.44 0 0 0 .188-.511l-1.457-4.554a.34.34 0 0 0-.54-.158c-3.949 3.278-8.447 5.454-13.496 6.527a.417.417 0 0 0-.329.452l.476 4.33c.027.251.165.347.411.288m-62.935-4.917c-4.929-1.205-9.688-3.337-13.583-6.586a.286.286 0 0 0-.26-.055.272.272 0 0 0-.186.184l-1.316 4.271a.59.59 0 0 0 .252.67 54.164 54.164 0 0 0 14.582 6.386c.282.079.437-.03.464-.323l.359-4.113c.02-.235-.084-.38-.312-.434m41.861-19.147a2.52 2.52 0 0 0-2.516-2.524l-16.239-.029a2.52 2.52 0 0 0-2.525 2.516v.13a2.52 2.52 0 0 0 2.516 2.524l16.24.029a2.52 2.52 0 0 0 2.524-2.516v-.13m.071 10.111a2.468 2.468 0 0 0-2.468-2.468h-16.38a2.468 2.468 0 0 0-2.468 2.468v.14a2.468 2.468 0 0 0 2.468 2.468h16.38a2.468 2.468 0 0 0 2.468-2.467v-.141m-.088 10.148a2.385 2.385 0 0 0-2.377-2.394l-16.439-.057a2.385 2.385 0 0 0-2.394 2.377v.13a2.385 2.385 0 0 0 2.377 2.393l16.439.057a2.385 2.385 0 0 0 2.393-2.377v-.13" stroke="#53A3B8"/><path d="m61.883 10.923-3.971.193c-.24.012-.359-.1-.359-.334-.005-1.651.259-3.526-.78-4.818-1.24-1.534-3.685-1.598-5.036-.035-1.052 1.21-.734 3.472-.846 4.964-.02.22-.139.323-.358.312l-4.689-.235c.423-.486.635-1.303.635-2.45C46.473 3.972 48.535.477 53.17.042c3.8-.359 7.232 1.604 8.242 5.37.36 1.335.517 3.172.47 5.51Z" fill="#075E81" fill-rule="nonzero"/><path d="M61.883 10.923c5.026-.024 9.96-.063 14.806-.118 3.729-.04 6.504.202 8.325.723 4.767 1.363 8.374 4.263 10.822 8.7 1.559 2.817 2.137 6.232 1.733 10.247l.13 4.87a.46.46 0 0 0 .3.435c4.153 1.822 6.814 5.37 4.834 10.059-.916 2.166-2.514 3.538-4.794 4.118-.2.051-.3.178-.3.382l-.058 5.017c-.028 8.594-3.948 14.189-11.762 16.786-1.21.405-2.48.34-3.825.664l-56.12-.088c-2.334-.165-4.463-.78-6.386-1.845-6.421-3.566-8.701-8.32-8.836-15.593l-.059-5.058a.394.394 0 0 0-.305-.382c-7.356-1.816-7.074-11.58.053-13.872.188-.058.283-.188.287-.387l.053-5.247c-.474-6.749 1.806-12.06 6.839-15.933 3.364-2.59 7.166-3.852 11.404-3.79 5.409.082 11.016.202 16.82.359l4.689.235c.219.011.338-.092.358-.312.112-1.492-.206-3.754.846-4.964 1.351-1.563 3.795-1.499 5.035.035 1.04 1.292.776 3.167.781 4.818 0 .235.12.346.359.334l3.971-.193Zm24.88 21.812c.012-6.418-5.182-11.63-11.6-11.641l-41.772-.073a11.621 11.621 0 0 0-11.642 11.6l-.033 19.13c-.011 6.418 5.183 11.63 11.6 11.641l41.773.073a11.621 11.621 0 0 0 11.641-11.6l.034-19.13Z" fill="#9FE8EF" fill-rule="nonzero"/><path d="M86.73 51.865a11.621 11.621 0 0 1-11.64 11.6l-41.773-.073c-6.418-.01-11.612-5.223-11.601-11.64l.033-19.13A11.621 11.621 0 0 1 33.391 21.02l41.772.073c6.418.01 11.612 5.223 11.6 11.641l-.033 19.13Zm-43.3-13.423a6.187 6.187 0 1 0-12.374 0 6.187 6.187 0 0 0 12.374 0Zm33.635-.03a6.157 6.157 0 1 0-12.314 0 6.157 6.157 0 0 0 12.314 0Zm-17.097 8.214c-2.673 3.143-5.652 4.782-9.335 2.262-1.252-.852-2.938-3.784-4.765-2.274-1.5 1.238-1.588 2.716-.265 4.436 3.755 4.865 11.022 5.834 15.646 1.774 2.015-1.768 3.637-3.566 1.422-6.04-.368-.41-1.115-.546-2.239-.405a.718.718 0 0 0-.464.247Z" fill="#FFF" fill-rule="nonzero"/><path d="m10.781 30.334-.053 5.247c-.004.2-.1.329-.287.387-7.127 2.292-7.41 12.056-.053 13.872.178.04.304.199.305.382l.059 5.058C.582 53.606-3.971 40.627 4.236 33.683c.721-.607 1.78-1.216 3.179-1.827a146.77 146.77 0 0 0 3.366-1.522Zm86.789.141c1.143.411 2.189.83 3.137 1.257 12.026 5.453 8.918 20.728-3.026 23.624l.059-5.017c0-.204.1-.33.3-.382 2.279-.58 3.877-1.952 4.793-4.118 1.98-4.689-.681-8.237-4.835-10.059a.46.46 0 0 1-.3-.434l-.129-4.87Z" fill="#075E81" fill-rule="nonzero"/><circle fill="#075E81" fill-rule="nonzero" cx="37.243" cy="38.442" r="6.187"/><circle fill="#075E81" fill-rule="nonzero" cx="70.908" cy="38.412" r="6.157"/><path d="M50.633 48.888c3.683 2.52 6.662.881 9.335-2.262a.718.718 0 0 1 .464-.247c1.124-.14 1.87-.006 2.239.406 2.215 2.473.593 4.27-1.422 6.04-4.624 4.059-11.891 3.09-15.646-1.775-1.323-1.72-1.235-3.198.265-4.436 1.827-1.51 3.513 1.422 4.765 2.274Zm-24.659 23.83 56.12.088c3.513 1.856 6.72 4.026 9.618 6.51 2.875 2.463 5.373 5.371 7.496 8.724 4.356 6.894 7.004 14.47 7.944 22.731.358 3.184-.805 4.982-4.301 3.878l-.693-5.752a.376.376 0 0 0-.582-.27c-2.75 1.838-5.546 3.519-8.783 4.647-1.246.435-2.507.9-3.784 1.398a30.261 30.261 0 0 1-7.55.1l-4.576-37.078c-.024-.188-.128-.282-.312-.282l-44.886-.082c-.235 0-.364.115-.388.346l-4.23 37.125c-2.73.267-5.252.218-7.567-.147-4.641-1.742-8.948-3.844-12.92-6.304-.215-.133-.336-.074-.364.177l-.576 6.092c-1.778.643-3.135.472-4.071-.51a.875.875 0 0 1-.235-.518c-.176-2.001-.135-3.762.123-5.282 1.434-8.401 4.657-16.025 9.67-22.872 3.937-5.375 9.113-9.335 14.847-12.72Zm-9.088 13.589c2.05 2.027 4.606 3.525 7.49 5.094a.335.335 0 0 0 .494-.259l1.41-12.35a.251.251 0 0 0-.11-.235.237.237 0 0 0-.254-.005 37.731 37.731 0 0 0-9.042 7.214.394.394 0 0 0 .012.54Zm67.035 4.84c2.732-1.186 5.329-2.907 7.532-4.864a.323.323 0 0 0 .024-.47 41.383 41.383 0 0 0-9.124-7.279.264.264 0 0 0-.4.253l1.434 12.05c.014.122.085.23.19.291a.378.378 0 0 0 .344.02Zm-70.584-1.245-2.103 3.966a.497.497 0 0 0 .135.623 33.774 33.774 0 0 0 12.108 6.022c.251.067.388-.03.412-.288l.3-3.549a.987.987 0 0 0-.659-1.016 29.952 29.952 0 0 1-9.964-5.799c-.094-.086-.17-.072-.229.041Zm81.071.312c-3.049 2.99-6.486 3.825-10.117 5.722-.152.082-.217.208-.194.376l.5 3.778c.012.09.062.17.136.219.075.05.166.064.252.04a33.225 33.225 0 0 0 11.838-5.97c.235-.184.276-.405.123-.664l-2.073-3.442c-.13-.22-.284-.24-.465-.06Zm-8.49 20.128c5.06-1.21 10.37-3.672 14.747-6.374a.44.44 0 0 0 .188-.512l-1.457-4.553a.34.34 0 0 0-.54-.158c-3.948 3.278-8.447 5.454-13.495 6.527a.417.417 0 0 0-.33.452l.476 4.33c.028.25.165.347.412.288Zm-62.934-4.917c-4.93-1.205-9.688-3.337-13.583-6.586a.286.286 0 0 0-.26-.055.272.272 0 0 0-.187.184l-1.316 4.271a.59.59 0 0 0 .253.67 54.164 54.164 0 0 0 14.582 6.386c.282.078.437-.03.464-.323l.358-4.113c.02-.235-.084-.38-.311-.434Z" fill="#075E81" fill-rule="nonzero"/><path d="m81.46 114.772-54.393.03 4.23-37.126c.024-.23.153-.346.388-.346l44.886.082c.184 0 .288.094.312.282l4.577 37.078ZM64.845 86.278a2.52 2.52 0 0 0-2.516-2.524l-16.24-.029a2.52 2.52 0 0 0-2.524 2.516v.13a2.52 2.52 0 0 0 2.516 2.524l16.239.029a2.52 2.52 0 0 0 2.524-2.516v-.13Zm.07 10.11a2.468 2.468 0 0 0-2.468-2.467h-16.38a2.468 2.468 0 0 0-2.467 2.468v.14a2.468 2.468 0 0 0 2.468 2.468h16.38a2.468 2.468 0 0 0 2.467-2.467v-.141Zm-.088 10.149a2.385 2.385 0 0 0-2.377-2.394l-16.439-.057a2.385 2.385 0 0 0-2.393 2.377v.129a2.385 2.385 0 0 0 2.376 2.394l16.439.057a2.385 2.385 0 0 0 2.394-2.377v-.13ZM24.376 91.4c-2.884-1.568-5.44-3.066-7.49-5.093a.394.394 0 0 1-.012-.54 37.731 37.731 0 0 1 9.042-7.215.237.237 0 0 1 .254.005.25.25 0 0 1 .11.235l-1.41 12.35a.335.335 0 0 1-.494.259Zm67.077-5.117c-2.203 1.957-4.8 3.678-7.532 4.865a.378.378 0 0 1-.344-.02.391.391 0 0 1-.19-.291l-1.434-12.05a.264.264 0 0 1 .4-.253 41.383 41.383 0 0 1 9.124 7.28.323.323 0 0 1-.024.47Z" fill="#9FE8EF" fill-rule="nonzero"/><path d="m46.155 83.726 16.11.028a2.585 2.585 0 1 1-.01 5.17l-16.11-.028a2.585 2.585 0 1 1 .01-5.17Z" fill="#075E81" fill-rule="nonzero"/><path d="M13.337 89.902c.059-.113.135-.127.23-.04a29.952 29.952 0 0 0 9.963 5.798.987.987 0 0 1 .658 1.016l-.3 3.55c-.023.258-.16.354-.41.287a33.774 33.774 0 0 1-12.11-6.022.497.497 0 0 1-.134-.623l2.103-3.966Zm70.954 6.034c3.631-1.897 7.068-2.732 10.117-5.722.18-.18.335-.16.465.059l2.073 3.442c.153.259.112.48-.123.664a33.225 33.225 0 0 1-11.838 5.97.302.302 0 0 1-.252-.04.315.315 0 0 1-.136-.22l-.5-3.777c-.023-.168.042-.294.194-.376Z" fill="#9FE8EF" fill-rule="nonzero"/><rect fill="#075E81" fill-rule="nonzero" x="43.6" y="93.921" width="21.315" height="5.076" rx="2.538"/><path d="M100.665 103.968c-4.377 2.702-9.688 5.164-14.746 6.374-.247.059-.384-.037-.412-.288l-.475-4.33a.417.417 0 0 1 .329-.452c5.048-1.073 9.547-3.25 13.495-6.527a.34.34 0 0 1 .54.158l1.457 4.553a.44.44 0 0 1-.188.512ZM9.4 98.839c3.896 3.249 8.655 5.381 13.584 6.586.227.054.331.2.311.434l-.358 4.113c-.027.294-.182.401-.464.323A54.164 54.164 0 0 1 7.89 103.91a.59.59 0 0 1-.253-.67l1.316-4.271a.272.272 0 0 1 .186-.184.286.286 0 0 1 .26.055Z" fill="#9FE8EF" fill-rule="nonzero"/><path d="m46.077 104.086 16.309.056a2.45 2.45 0 0 1-.018 4.9l-16.31-.056a2.45 2.45 0 0 1 .018-4.9Z" fill="#075E81" fill-rule="nonzero"/><path d="m19.5 114.654-13.86-.035.576-6.092c.028-.251.15-.31.365-.177 3.971 2.46 8.278 4.562 12.919 6.304Zm83.351-.005-13.842.023c1.277-.497 2.538-.963 3.784-1.398 3.237-1.128 6.033-2.809 8.783-4.647a.376.376 0 0 1 .582.27l.693 5.752Z" fill="#9FE8EF" fill-rule="nonzero"/></g><g transform="translate(129 19.63)" fill="#075E81" fill-rule="nonzero"><circle cx="6.87" cy="6.891" r="6.87"/><path d="M37.11 39.181c.007 1.554.69 1.954 2.05 1.2 8.63-4.77 17.3-9.52 23.66-16.79 1.707-1.96 3.01-3.146 3.91-3.56 4.49-2.06 9.87 3.11 8.44 7.44-.427 1.287-1.677 2.984-3.75 5.09a378.717 378.717 0 0 1-11.24 10.96c-.253.234-.267.48-.04.74a191.282 191.282 0 0 1 12.29 15.8c2.91 4.18 4.47 9.23-.37 12.39-1.86 1.214-3.75 1.407-5.67.58-1.213-.52-2.4-1.753-3.56-3.7-3.02-5.08-7.67-12.97-12.64-17.05a.905.905 0 0 0-1.02-.1l-11.46 6.23a1.09 1.09 0 0 0-.57.87c-.28 3.34.23 8.05-1 10.67-1.97 4.22-8.84 4.74-11.29 1.05-.853-1.28-1.277-3.373-1.27-6.28.04-18.466.027-36.933-.04-55.4-.013-2.826.307-4.823.96-5.99 3.55-6.33 12.72-2.86 12.67 3.9a3236.306 3236.306 0 0 0-.06 31.95Z"/><circle cx="89.17" cy="6.881" r="6.85"/><path d="M141.11 22.981c-.027-4.786-.01-9.556.05-14.31.13-11.67 13.29-10.84 13.32-.93.053 19.06.03 38.12-.07 57.18-.013 1.96-.27 3.47-.77 4.53-2.22 4.71-8.54 5.32-11.56.87-.187-.273-.41-.31-.67-.11-9.72 7.32-23.63 3.41-31.22-4.92-7.033-7.713-8.893-16.796-5.58-27.25 1-3.173 2.61-5.936 4.83-8.29 8.12-8.61 19.95-12.17 31.01-6.37.447.234.667.1.66-.4Zm1.22 24.13c0-7.069-5.73-12.8-12.8-12.8s-12.8 5.731-12.8 12.8c0 7.07 5.73 12.8 12.8 12.8s12.8-5.73 12.8-12.8Zm133.9.2a26.84 26.84 0 0 1-53.68 0c0-14.823 12.017-26.84 26.84-26.84a26.84 26.84 0 0 1 26.84 26.84Zm-16.893 8.014a11.79 11.79 0 0 0-.465-16.667l-1.483-1.401a11.79 11.79 0 0 0-16.667.465l-1.319 1.395a11.79 11.79 0 0 0 .466 16.667l1.482 1.402a11.79 11.79 0 0 0 16.667-.466l1.319-1.395Zm-42.957-7.964c0 14.785-11.985 26.77-26.77 26.77s-26.77-11.985-26.77-26.77c0-14.784 11.985-26.77 26.77-26.77s26.77 11.986 26.77 26.77Zm-13.75-.1c0-7.152-5.798-12.95-12.95-12.95a12.95 12.95 0 1 0 0 25.9c7.152 0 12.95-5.798 12.95-12.95Z"/><rect x=".3" y="20.791" width="13.24" height="52.58" rx="6.44"/><rect x="82.75" y="20.871" width="13.24" height="52.4" rx="6.13"/></g></g></svg>
