<svg width="494" height="114" viewBox="0 0 494 114" xmlns="http://www.w3.org/2000/svg"><g fill="none"><path d="M168.674 88.51c-6.36-5.25-10.56-13.47-10.6-21.85a5996 5996 0 0 1-.07-36.31c.006-2.707.233-4.63.68-5.77 1.63-4.17 6.56-6 10.36-3.46 2.66 1.78 3.43 4.47 3.45 7.8.06 12.413.096 24.83.11 37.25.01 9.69 11.06 18.01 20.38 11.86 8.17-5.39 7.1-12.19 7.18-22.99.046-7.207.003-16.253-.13-27.14-.08-7.23 8.38-11.23 13-4.73 1.74 2.46 1.65 4.61 1.67 7.56.08 11.393.1 22.787.06 34.18-.04 9.49-3.97 19.98-12.35 25.14-9.53 5.88-24.97 5.69-33.74-1.54Z" fill="#0F2222"/><path d="M406.834 66.88c.59-11.83 8.15-21.14 19.68-23.32 9.99-1.89 21.43 5.41 22.83 16.33 1.43 11.24-5.57 13.06-15.03 13.01-4.7-.027-9.39-.03-14.07-.01-.38.007-.52.19-.42.55 2.09 7.55 10.26 11.68 17.37 8.22.28-.14 1.336-.97 3.17-2.49 5.25-4.37 12.64 1.93 7.54 7.65-2.66 2.98-5.99 5.05-10.03 6-15.73 3.68-25.11-3.55-30.46-18.25-.134-.373-.24-.367-.32.02-1.61 8.02-4.95 14.11-12.33 17.28-2.76 1.187-7.69 1.817-14.79 1.89-8.127.08-13.87.003-17.23-.23-4.267-.293-6.397-2.663-6.39-7.11.006-17.867-.01-35.73-.05-53.59-.02-8.57-.08-12.38 9.43-12.42 6.81-.02 15.92-.4 21.02.32 9.48 1.35 16.86 8.4 18.48 17.79 1.193 6.9-1.357 12.74-7.65 17.52-.36.28-.34.527.06.74 4.186 2.273 7.1 5.66 8.74 10.16.26.707.41.687.45-.06Zm-36.03-32.05-.08 14.86c0 .392.318.71.71.71l10.97.06c2.276.012 4.463-.79 6.08-2.228 1.617-1.439 2.53-3.396 2.54-5.442v-.86c.019-4.256-3.804-7.725-8.54-7.75l-10.97-.06a.71.71 0 0 0-.71.71Zm58.59 19.55c-5.29.31-8.96 4.02-9.9 9.18a.5.5 0 0 0 .49.58l16.3.04c.68.004 1.32-.322 1.719-.875a2.126 2.126 0 0 0 .29-1.915c-1.666-4.927-4.633-7.263-8.9-7.01Zm-58.57 11.26-.02 13.44c0 .42.34.76.76.76l12.25.02c4.95.007 8.97-3.3 8.98-7.39v-.14c.004-1.966-.937-3.854-2.618-5.248-1.68-1.393-3.962-2.178-6.342-2.182l-12.25-.02a.76.76 0 0 0-.76.76Z" fill="#FACC15"/><path d="M232.034 49.27c10.57-11.15 28.02-6.69 34.24 6.62.833 1.793 1.256 5.18 1.27 10.16.013 6.02 0 12.037-.04 18.05-.014 2.98-.4 5.11-1.16 6.39-2.35 3.98-9.54 4.28-11.9.07-.627-1.107-.944-2.93-.95-5.47-.02-7.06-.03-14.117-.03-21.17-.01-8.54-9.52-11.41-15.74-7.32-3.94 2.58-5.927 6.52-5.96 11.82-.04 6.167-.094 12.337-.16 18.51-.054 5.007-2.507 7.257-7.36 6.75-4.174-.433-6.27-2.943-6.29-7.53a7810.88 7810.88 0 0 1-.05-33.19c.006-2.74.326-4.717.96-5.93 3.2-6.06 11.8-5.15 12.68 2.08.046.4.21.453.49.16Zm49.11 24.17c1.786 5.9 5.563 9.033 11.33 9.4 4.01.25 6.76-1.96 9.99-4.22 4.47-3.13 10.38 2.02 7.48 6.99-3.73 6.39-14.13 8.74-20.84 8.03-18.42-1.95-24.41-21.59-18.41-36.87 1.173-2.987 2.903-5.507 5.19-7.56 7.88-7.07 19.86-8.1 27.92-1.18 5.72 4.89 8.26 11.77 6.12 19.03-1.35 4.6-6.64 5.71-11.68 5.69a664.59 664.59 0 0 0-16.7.13c-.38.007-.514.193-.4.56Zm15.59-16.49c-6.11-6.16-14.76-.83-15.69 6.67-.047.347.103.52.45.52l15.27.03a2.24 2.24 0 0 0 2.22-2.51c-.22-1.86-.97-3.43-2.25-4.71Z" fill="#0F2222"/><path d="M324.154 73.44c1.5 6.01 7.21 10.51 13.49 9.26 4.49-.89 10.65-8.8 14.83-2.75 3.83 5.55-4.48 10.83-8.7 12.26-13.51 4.58-27.04-.67-30.96-14.98-2.214-8.073-1.464-16.08 2.25-24.02.68-1.46 2.473-3.243 5.38-5.35 8.52-6.193 17.116-6.333 25.79-.42 4.733 3.233 7.366 7.78 7.9 13.64.48 5.38-1.287 8.927-5.3 10.64-1.734.74-5.17 1.12-10.31 1.14-4.64.013-9.284.017-13.93.01-.394 0-.54.19-.44.57Zm.79-8.96 16.86-.47a.77.77 0 0 0 .74-.79v-.12c-.142-5.006-4.31-8.95-9.31-8.81l-.28.01c-5.001.142-8.94 4.314-8.8 9.32v.12a.77.77 0 0 0 .79.74Z" fill="#0F2222"/><path d="M463.194 73.42c1.81 6.27 7.93 10.86 14.53 9.23 3.57-.88 6.04-5.03 9.73-4.58 6.24.75 6.64 6.45 2.04 10.07-7.287 5.727-15.387 7.08-24.3 4.06-3.67-1.24-6.24-3.77-8.83-6.89-11.84-14.21-5.34-39.11 14.1-41.98 6.786-1.007 12.933 1.477 18.44 7.45 5.31 5.75 7.07 17.3-.99 20.79-1.914.833-5.817 1.233-11.71 1.2-4.2-.027-8.4 0-12.6.08-.387.007-.524.197-.41.57Zm9.33-19.04c-5.1.41-8.65 3.97-9.38 8.99a.63.63 0 0 0 .62.72l16.23.13a2.02 2.02 0 0 0 1.93-2.7c-1.807-5.113-4.94-7.493-9.4-7.14Z" fill="#FACC15"/><g transform="translate(.82)"><path d="M38.24 39.207c2.06-8.91 7.016-15.685 14.867-20.327a.491.491 0 0 0 .2-.618 26.346 26.346 0 0 0-3.922-6.346.749.749 0 0 0-.618-.281c-3.923.032-6.185-1.603-6.785-4.903-1.408-7.678 10.081-9.54 11.4-1.23.03.211.144.404.316.536 3.15 2.436 5.443 5.512 6.88 9.23.1.258.368.406.633.35a37.337 37.337 0 0 1 15.128.062.48.48 0 0 0 .543-.289c1.515-3.726 3.823-6.863 6.922-9.408a.985.985 0 0 0 .336-.543C86.345-4.496 98.363.908 95.272 7.926c-1.158 2.624-3.41 3.862-6.757 3.716a.752.752 0 0 0-.625.274 19.45 19.45 0 0 0-3.44 6.229.553.553 0 0 0 .205.625c7.39 5.253 13.234 11.612 14.387 20.815a.343.343 0 0 0 .564.226c9.895-8.275 20.43-11.29 30.91-2.403 5.864 4.979 7.883 13.521 6.352 21.027-1.958 9.58-10.39 17.01-19.565 19.476-2.079.559-5.34.902-9.786 1.03-4.496.133-9.035.371-13.618.714-.33.023-.52.197-.57.522-1.08 6.584-4.029 12.24-8.845 16.97a378.148 378.148 0 0 1-7.046 6.757c-3.09 2.89-5.205 5.912-7.334 9.34a1.547 1.547 0 0 1-2.582.061c-1.264-1.827-2.493-3.825-3.963-5.466-5.35-5.982-12.182-10.94-16.282-17.869-1.793-3.028-2.328-6.229-2.994-9.614-.087-.435-.35-.662-.79-.68-5.256-.22-10.4-.48-15.43-.783-4.172-.252-7.404-.78-9.697-1.586C9.987 74.374 3.236 67.624.847 59.102-4 41.837 12.824 27.127 29.394 33.953c2.905 1.195 5.563 3.51 8.29 5.46.288.21.473.142.555-.206Zm39.205-14.12c-8.96-3.465-16.992-2.062-24.097 4.21-4.556 4.025-6.742 9.013-6.559 14.964.09 2.891.46 6.057 1.937 8.35 5.315 8.274 12.629 12.078 21.94 11.414 6.435-.453 11.25-2.898 15.267-7.808 5.494-6.716 6.254-13.883 2.28-21.501-2.38-4.56-5.97-7.77-10.768-9.628Zm16.488 46.67c5.59-.26 11.059-.734 16.406-1.42 9.443-1.21 16.97-6.23 18-15.843.92-8.55-6.607-15.459-15.122-13.179-1.575.421-3.427 1.481-5.556 3.18a331.323 331.323 0 0 0-7.911 6.51c-.692.581-1.227 1.328-1.607 2.239a40.146 40.146 0 0 1-6.126 10.17.426.426 0 0 0-.082.35l1.737 7.795c.032.142.12.208.261.199ZM9.095 52.956c-.557 10.081 8.48 16.07 17.319 17.326 4.761.678 10.537 1.163 17.326 1.457.138.004.22-.062.247-.2l1.518-7.815a.484.484 0 0 0-.09-.384 53.247 53.247 0 0 1-5.809-9.731c-.476-1.03-1.103-1.891-1.882-2.582-4.541-4.052-7.732-6.726-9.573-8.021-4.484-3.16-11.619-2.452-15.293 1.064-2.307 2.211-3.562 5.173-3.763 8.886Zm45.914 20.733a23.062 23.062 0 0 0-2.698-.934c-.257-.074-.396.023-.42.288a19.859 19.859 0 0 0 1.072 8.447c.091.256.26.44.508.55 10.301 4.61 20.613 4.632 30.937.068a.673.673 0 0 0 .385-.467c.64-2.66.922-5.357.845-8.09-.01-.334-.174-.448-.495-.343-3.351 1.092-6.881 2.458-10.06 2.96-6.882 1.085-13.573.258-20.074-2.48Zm23.123 19.16a.179.179 0 0 0-.165-.296c-6.35 1.328-12.682 1.261-18.995-.2a.16.16 0 0 0-.182.078.177.177 0 0 0 .024.204l9.827 10.13a.35.35 0 0 0 .515-.007l8.976-9.91Z" fill="#0F2222"/><path d="M77.445 25.088c4.798 1.859 8.387 5.068 10.768 9.628 3.974 7.618 3.214 14.785-2.28 21.501-4.018 4.91-8.832 7.355-15.266 7.808-9.312.664-16.626-3.14-21.941-11.413-1.477-2.294-1.847-5.46-1.937-8.35-.183-5.952 2.003-10.94 6.559-14.965 7.105-6.272 15.137-7.675 24.097-4.21ZM62.666 41.645a4.326 4.326 0 1 0-8.652 0 4.326 4.326 0 0 0 8.652 0Zm20.554.02a4.368 4.368 0 1 0-8.735 0 4.368 4.368 0 0 0 8.735 0Zm-16.358 6.717c-.858-.824-1.675-2.582-3.172-1.697a1.59 1.59 0 0 0-.625 2.04c1.332 2.843 4.518 4.512 7.54 3.51 1.648-.55 4.32-3.14 3.571-5.117a1.25 1.25 0 0 0-2.335-.02c-.72 1.812-3.303 2.877-4.979 1.284Z" fill="#FACC15"/><circle fill="#0F2222" cx="58.34" cy="41.645" r="4.326"/><circle fill="#0F2222" cx="78.853" cy="41.665" r="4.368"/><path d="M93.933 71.758c-.142.01-.229-.057-.26-.2l-1.738-7.794a.426.426 0 0 1 .082-.35 40.146 40.146 0 0 0 6.126-10.17c.38-.911.915-1.658 1.607-2.239a331.323 331.323 0 0 1 7.91-6.51c2.13-1.699 3.982-2.759 5.557-3.18 8.515-2.28 16.042 4.629 15.121 13.179-1.03 9.614-8.556 14.634-17.999 15.842a203.135 203.135 0 0 1-16.406 1.422ZM12.858 44.069c3.674-3.516 10.81-4.223 15.293-1.064 1.84 1.295 5.032 3.969 9.573 8.02.779.692 1.406 1.553 1.882 2.583a53.247 53.247 0 0 0 5.81 9.73.484.484 0 0 1 .09.385l-1.519 7.815c-.027.138-.11.204-.247.2-6.79-.294-12.565-.779-17.326-1.457-8.838-1.256-17.876-7.245-17.32-17.326.202-3.713 1.457-6.675 3.764-8.886Z" fill="#FACC15"/><path d="M66.862 48.382c1.676 1.593 4.258.528 4.98-1.285a1.25 1.25 0 0 1 2.334.021c.749 1.978-1.923 4.567-3.571 5.116-3.022 1.003-6.208-.666-7.54-3.509a1.59 1.59 0 0 1 .625-2.04c1.497-.885 2.314.873 3.172 1.697Z" fill="#0F2222"/><path d="M55.01 73.688c6.5 2.737 13.191 3.564 20.072 2.479 3.18-.502 6.71-1.868 10.061-2.96.32-.105.485.01.495.343a30.657 30.657 0 0 1-.845 8.09.673.673 0 0 1-.385.467c-10.324 4.564-20.636 4.542-30.937-.069a.913.913 0 0 1-.508-.55 19.859 19.859 0 0 1-1.071-8.446c.023-.265.162-.362.419-.288.947.265 1.847.577 2.698.934Zm23.122 19.159-8.976 9.91a.35.35 0 0 1-.515.007l-9.827-10.13a.177.177 0 0 1-.024-.204.16.16 0 0 1 .182-.077c6.313 1.46 12.645 1.527 18.995.2a.179.179 0 0 1 .165.294Z" fill="#FACC15"/></g></g></svg>
