<svg width="642" height="146" viewBox="0 0 642 146" xmlns="http://www.w3.org/2000/svg"><g fill="none" fill-rule="evenodd"><g transform="translate(158 20.15)" fill="#7E22CE" fill-rule="nonzero"><rect transform="rotate(.1 148.272 52.063)" x="135.092" y=".023" width="26.36" height="104.08" rx="12.82"/><path d="M423.652 70.443a2.235 2.235 0 0 0-1.6 2.13c-.027 6.527-.1 13.24-.22 20.14-.34 19.1-26.33 17.2-26.41-1.5-.107-24.647-.157-49.293-.15-73.94 0-10.38 7.15-17.29 17.59-14.32 8.91 2.53 9.02 8.48 9.09 16.24.053 6.693.036 13.377-.05 20.05 0 .325.101.643.29.91.653.94 1.396.993 2.23.16a1520.698 1520.698 0 0 1 31.27-30.25c4.333-4.073 7.726-6.53 10.18-7.37 6.94-2.36 16.99 1.84 17.8 10.27.446 4.66-.957 8.34-4.21 11.04-9.27 7.68-17.08 16.93-26.48 24.38-8.41 6.67-.75 10.91 4.13 15.38.213.187 1.383 1.107 3.51 2.76 1.65 1.29 2.93 3.01 4.27 4.22a1643.853 1643.853 0 0 1 15.13 13.75c2.64 2.44 3.856 5.51 3.65 9.21-.47 8.5-8.46 14.21-16.58 12.24-1.96-.473-4.337-1.927-7.13-4.36a415.22 415.22 0 0 1-13.75-12.54c-1.01-.96-2.45-1.71-3.55-2.79a458.894 458.894 0 0 0-16.16-15.03c-.92-.807-1.87-1.067-2.85-.78Zm-362.07-10.22a182.054 182.054 0 0 0-4.17 15.07c-1.57 6.76-3.56 13.45-5.21 18.61-2.73 8.58-11.45 13.14-19.54 8.7-4-2.2-5.85-4.96-7.43-9.52a811 811 0 0 1-10.59-32.99c-1.874-6.293-6.137-19.17-12.79-38.63-1.274-3.713-1.89-6.45-1.85-8.21.2-7.72 6.74-13.47 14.53-13.06 3.56.193 6.473 1.577 8.74 4.15 1.36 1.547 2.643 4.293 3.85 8.24a3500.66 3500.66 0 0 1 7.25 23.89c1.18 3.92 2.43 10.42 4.26 15.48.18.493.34.487.48-.02 3.106-11.433 6.59-25.34 10.45-41.72 2.48-10.51 15.66-13.63 22.33-5.13 2.86 3.65 3.52 9.92 4.69 14.87.48 2.053.97 4.413 1.47 7.08a216.589 216.589 0 0 0 6.18 24.73c.14.453.283.453.43 0 4.38-13.98 8.606-28 12.68-42.06.63-2.14 1.86-5.29 4.03-6.78 6.4-4.39 15.24-3.68 19.6 3.07 2.59 4.01 2.96 7.45 1.4 12.26-2.92 8.97-5.28 18.34-8.27 26.92a1306.849 1306.849 0 0 0-14.96 45.63c-1.327 4.3-2.734 7.283-4.22 8.95-7.46 8.35-20.19 4.55-23.41-5.77-1.667-5.327-4.887-16.577-9.66-33.75-.08-.307-.17-.31-.27-.01Zm246.39 2.6c-6.854-2.887-12.16-7.527-15.92-13.92-5.727-9.727-5.827-19.54-.3-29.44 7.87-14.08 20.61-17.45 35.92-17.44 14.04.013 28.076.023 42.11.03 2.71.01 6.79.81 8.77 2.72 5.57 5.38 6.62 14.06.87 19.62-3.46 3.35-7.18 3.98-12.33 4-19.474.093-34.74.087-45.8-.02-10.04-.09-8.25 11.34 1.5 11.35 15.333.007 30.666.053 46 .14 9.99.06 17.35 9.37 12.86 18.9-2.22 4.727-6.007 7.123-11.36 7.19-15.167.193-30.33.28-45.49.26-5.854-.007-11.464-1.137-16.83-3.39Z"/><path d="M307.972 102.823c-6.854-2.887-12.16-7.527-15.92-13.92-5.727-9.727-5.827-19.54-.3-29.44 7.87-14.08 20.61-17.45 35.92-17.44 14.04.013 28.076.023 42.11.03 2.71.01 6.79.81 8.77 2.72 5.57 5.38 6.62 14.06.87 19.62-3.46 3.35-7.18 3.98-12.33 4-19.474.093-34.74.087-45.8-.02-10.04-.09-8.25 11.34 1.5 11.35 15.333.007 30.666.053 46 .14 9.99.06 17.35 9.37 12.86 18.9-2.22 4.727-6.007 7.123-11.36 7.19-15.167.193-30.33.28-45.49.26-5.854-.007-11.464-1.137-16.83-3.39Zm-114-40c-6.854-2.887-12.16-7.527-15.92-13.92-5.727-9.727-5.827-19.54-.3-29.44 7.87-14.08 20.61-17.45 35.92-17.44 14.04.013 28.076.023 42.11.03 2.71.01 6.79.81 8.77 2.72 5.57 5.38 6.62 14.06.87 19.62-3.46 3.35-7.18 3.98-12.33 4-19.474.093-34.74.087-45.8-.02-10.04-.09-8.25 11.34 1.5 11.35 15.333.007 31.656 5.098 46.99 5.184 9.99.06 14.13 16.999 9.64 26.529-2.22 4.726-3.777-5.55-9.13-5.483-15.167.193-30.33.28-45.49.26-5.854-.007-11.464-1.137-16.83-3.39Z"/><path d="M254.971 100.823c6.853-2.887 12.16-7.527 15.92-13.92 5.726-9.727 5.826-19.54.3-29.44-7.87-14.08-20.61-17.45-35.92-17.44-14.04.013-28.077.023-42.11.03-2.71.01-6.79.81-8.77 2.72-5.42 5.235-3.557 9.12 1.682 14.69.145.154 4.959-1.743 5.114-1.593 3.46 3.35.498 6.95 5.648 6.97 19.473.094 33.756 3.64 44.816 3.533 10.04-.09 8.25 11.34-1.5 11.35-15.334.007-30.667.053-46 .14-9.99.06-17.35 9.37-12.86 18.9 2.22 4.727 6.006 7.123 11.36 7.19 15.166.193 30.33.28 45.49.26 5.853-.007 11.463-1.137 16.83-3.39Z"/></g><g transform="translate(.457)"><path d="M14.136 54.056c-2.37 8.483-2.526 16.895-.47 25.235 3.647 14.808 13.272 26.501 24.305 35.352 8.14 6.54 16.925 12.369 26.65 16.37.028.01.585.278 1.67.804 2.794 1.35 4.422.157 7.706-1.365a110.395 110.395 0 0 0 17.772-10.328c2.424-1.735 5.16-4.11 7.798-6.107 2.303-1.749 4.168-3.365 5.595-4.848 7.058-7.329 13.001-15.07 16.463-24.375 3.263-8.772 3.292-18.888 2.005-28.03-.19-1.37-.642-2.912-1.358-4.628"/><path d="M52.977 139.63c-15.717-8.58-28.3-17.637-39.062-31.321-5.914-7.521-9.86-17.025-12.149-26.359-4.926-20.132.54-43.483 15.284-58.532 1.912-1.955 3.732-4.258 5.602-5.943 3.39-3.057 7.158-6.007 11.281-8.005 1.18-.573 2.355-1.156 3.526-1.748C55.733-1.515 74.474-2.465 93.68 4.872c1.796.686 4.777 2.155 8.943 4.407 7.23 3.91 13.101 9.397 18.568 15.312 2.473 2.672 4.08 5.8 6.049 8.914 7.668 12.15 10.888 25.122 9.66 38.912-.61 6.915-2.41 13.929-5.395 21.042-2.061 4.92-5.26 9.853-8.168 14.637-.985 1.611-2.594 3.552-4.826 5.822-5.14 5.21-10.095 10.172-16.13 14.26-5.744 3.888-13.037 8.516-19.96 12.283-4.351 2.365-8.522 4.152-12.512 5.36-1.024.308-2.235.218-3.633-.27a89.953 89.953 0 0 1-13.3-5.921ZM14.136 54.056c-2.37 8.483-2.526 16.895-.47 25.235 3.647 14.808 13.272 26.501 24.305 35.352 8.14 6.54 16.925 12.369 26.65 16.37.028.01.585.278 1.67.804 2.794 1.35 4.422.157 7.706-1.365a110.395 110.395 0 0 0 17.772-10.328c2.424-1.735 5.16-4.11 7.798-6.107 2.303-1.749 4.168-3.365 5.595-4.848 7.058-7.329 13.001-15.07 16.463-24.375 3.263-8.772 3.292-18.888 2.005-28.03-.19-1.37-.642-2.912-1.358-4.628-.772-4.412-2.552-8.546-5.338-12.404-3.548-4.912-7.287-9.853-12.043-13.535C82.414 8.802 55.422 7.78 32.568 25.685c-7.87 6.163-15.113 15.39-17.6 25.193a192.706 192.706 0 0 1-.832 3.178Z" fill="#7E22CE" fill-rule="nonzero"/><path d="M33.073 79.178c-7.358-5.31-15.092-15.056-12.511-24.369 1.244-4.457 5.7-6.525 10.186-6.852 6.064-.434 11.559 1.734 16.507 5.104 8.075 5.509 14.7 17.11 15.376 26.75.113 1.672-.126 2.968-.718 3.888-3.327 5.154-16.037 1.585-20.665-.15a34.556 34.556 0 0 1-8.175-4.371Zm6.675-19.513a5.026 5.026 0 1 0-10.052 0 5.026 5.026 0 0 0 10.052 0Zm35.358 23.721c-2.466-5.26 2.595-16.087 5.467-20.643 5.772-9.178 16.94-17.146 28.257-14.353 9.824 2.424 9.049 13.84 4.698 20.41-1.599 2.423-4.407 6.226-7.03 8.402-7.763 6.435-16.637 9.447-26.622 9.035-2.331-.095-3.921-1.045-4.77-2.85Zm29.33-22.25a7.166 7.166 0 1 0-14.33 0 7.166 7.166 0 0 0 14.33 0Z" fill="#7E22CE" fill-rule="nonzero"/><ellipse fill="#7E22CE" fill-rule="nonzero" transform="rotate(90.4 64.259 95.115)" cx="64.259" cy="95.115" rx="2.843" ry="2.41"/><ellipse fill="#7E22CE" fill-rule="nonzero" transform="rotate(88.2 72.54 95.073)" cx="72.54" cy="95.073" rx="2.851" ry="2.545"/><path d="M62.012 111.622c-2.388-.853-9.646-4.386-9.824-7.273-.135-2.274 2.182-3.412 4.116-1.954 8.274 6.22 15.54 7.03 23.87.327 2.986-2.403 6.256 1.144 3.193 3.753-6.313 5.374-13.23 8.033-21.355 5.147Z" fill="#7E22CE" fill-rule="nonzero"/></g></g></svg>
