<svg width="286" height="77" viewBox="0 0 286 77" xmlns="http://www.w3.org/2000/svg"><path d="M244.87.444h1.42c3.647 1 5.523 3.503 5.63 7.51.293 10.733.403 21.597.33 32.59a.59.59 0 0 0 .97.45 218.847 218.847 0 0 0 17.34-16.23c3.48-3.62 10.17-4.93 12.69.62 1.7 3.76.967 6.797-2.2 9.11-4.82 3.513-9.473 7.52-13.96 12.02a2.076 2.076 0 0 0-.6 1.616c.044.6.347 1.148.83 1.504 3.05 2.25 4.94 5.27 8 7.58 3.987 3.02 7.247 6.717 9.78 11.09.16.267.213.557.16.87-1.01 5.91-7.59 9.48-12.22 4.57a240.162 240.162 0 0 0-15.25-14.8c-1.12-.993-2.27-1.387-3.45-1.18a2.595 2.595 0 0 0-2.13 2.68c.14 2.88.083 5.913-.17 9.1-.81 10.25-13.53 7.6-13.54-2.34-.02-18.973-.01-37.947.03-56.92.01-5.09 1.26-8.6 6.34-9.84Zm-53.82 25.64c.109.23.318.398.566.451a.794.794 0 0 0 .694-.181c2.56-2.213 5.63-3.53 9.21-3.95 9.367-1.1 17.077 2.027 23.13 9.38 3.287 3.993 4.99 8.38 5.11 13.16.253 10.147.28 18.313.08 24.5-.21 6.62-8.06 8.75-11.95 4.06-2.57-3.11-1.57-16.77-1.52-21.18.053-4.36-.21-7.397-.79-9.11-3.48-10.31-17.18-9.3-22.46-1.22-.793 1.22-1.21 2.773-1.25 4.66-.147 7.44-.25 14.867-.31 22.28-.07 10.05-13.59 8.83-13.73-1.12-.247-18.407-.15-31.867.29-40.38.08-1.6.773-3.02 2.08-4.26 3.84-3.64 8.77-1.55 10.85 2.91ZM85.501 76.746c-14.841 1.378-28.011-9.77-29.416-24.899-.674-7.265 1.512-14.495 6.075-20.1 4.563-5.604 11.131-9.124 18.259-9.785 14.842-1.377 28.012 9.77 29.416 24.899.674 7.265-1.512 14.495-6.075 20.1-4.563 5.604-11.131 9.124-18.259 9.785ZM96.8 49.154c0-7.66-6.21-13.87-13.87-13.87a13.87 13.87 0 0 0 0 27.74c7.66 0 13.87-6.21 13.87-13.87Zm74.1.1a27.46 27.46 0 0 1-27.46 27.46c-15.166 0-27.46-12.294-27.46-27.46s12.294-27.46 27.46-27.46a27.46 27.46 0 0 1 27.46 27.46Zm-13.23-.075c-.04-7.682-6.48-13.876-14.383-13.835-7.903.042-14.277 6.303-14.237 13.985.04 7.682 6.48 13.876 14.383 13.835 7.903-.042 14.277-6.303 14.237-13.985ZM0 69.344v-3.92c1.3-2.847 3.337-5.397 6.11-7.65 6.58-5.34 12.54-10.97 18.65-16.83 1.55-1.48 4.02-2.75 5.86-4.4a.39.39 0 0 0-.25-.68c-7.5-.053-14.95-.043-22.35.03-3.89.04-6.27-.4-7.5-4.49-1.74-5.72 1.89-9.19 7.39-9.29 14.307-.253 26.25-.22 35.83.1 5.68.19 9.76 6.22 7.95 11.55-.5 1.473-1.787 3.18-3.86 5.12a652.406 652.406 0 0 1-25.85 22.95.34.34 0 0 0 .21.6c6.96.033 13.967.02 21.02-.04 2.26-.02 3.923.22 4.99.72 4.47 2.12 4.1 8.88.47 11.56-1.14.847-2.73 1.283-4.77 1.31-14.28.187-26.247.21-35.9.07-4.713-.067-7.38-2.303-8-6.71Z" fill="#2563EB"/></svg>
